<svg width="143" height="143" viewBox="0 0 143 143" fill="none" xmlns="http://www.w3.org/2000/svg">
<g clip-path="url(#clip0_1022_3507)">
<rect width="143" height="143" rx="71.5" fill="white"/>
<circle cx="71.5" cy="71.5" r="71.5" fill="#DEF4FF"/>
<path d="M71.686 17.9882C72.5869 18.2027 73.4878 18.3028 74.403 18.217C78.9218 17.8309 94.2943 17.6593 100.929 32.3025C108.737 49.5769 112.984 54.253 107.536 74.3302C102.088 94.4074 106.435 93.6495 109.252 103.874L109.338 104.174C110.854 109.68 106.392 114.999 100.686 114.528L89.7755 113.598C88.989 113.527 88.1882 113.584 87.416 113.741C81.2098 115.028 51.5659 120.905 40.1974 117.931C36.3078 116.916 32.9759 115.686 30.2017 114.456C25.4541 112.354 23.9669 106.434 26.9127 102.158C28.1568 100.371 29.1292 98.4114 29.3294 96.5381C29.93 90.7609 25.9117 85.5557 27.499 75.7602C30.1445 59.3581 35.1638 60.8739 36.0504 50.6351C36.5652 44.7721 45.3883 11.7105 71.6717 17.9882H71.686Z" fill="#EB3F3A"/>
<path d="M71.686 17.9882C72.5869 18.2027 73.4878 18.3028 74.403 18.217C78.9218 17.8309 94.2943 17.6593 100.929 32.3025C108.737 49.5769 112.984 54.253 107.536 74.3302C102.088 94.4074 106.435 93.6495 109.252 103.874L109.338 104.174C110.854 109.68 106.392 114.999 100.686 114.528L89.7755 113.598C88.989 113.527 88.1882 113.584 87.416 113.741C81.2098 115.028 51.5659 120.905 40.1974 117.931C36.3078 116.916 32.9759 115.686 30.2017 114.456C25.4541 112.354 23.9669 106.434 26.9127 102.158C28.1568 100.371 29.1292 98.4114 29.3294 96.5381C29.93 90.7609 25.9117 85.5557 27.499 75.7602C30.1445 59.3581 35.1638 60.8739 36.0504 50.6351C36.5652 44.7721 45.3883 11.7105 71.6717 17.9882H71.686Z" fill="#1F0900"/>
<path d="M128.401 125.553C116.56 121.564 86.9736 106.248 86.9736 106.248L85.1432 92.2629H59.2316L57.5585 106.248C57.5585 106.248 27.9861 121.564 16.1314 125.553C4.27672 129.543 4.29102 149.763 4.29102 149.763H140.255C140.255 149.763 140.255 129.543 128.415 125.553H128.401Z" fill="#CE7C62"/>
<path d="M72.2733 110.669C80.4 110.669 86.988 108.691 86.988 106.25C86.988 103.81 80.4 101.832 72.2733 101.832C64.1466 101.832 57.5586 103.81 57.5586 106.25C57.5586 108.691 64.1466 110.669 72.2733 110.669Z" fill="#D9866C"/>
<path d="M58.1152 101.615C58.1152 101.615 78.2067 103.46 85.2852 94.6508V84.5264L59.8169 86.9717L58.1152 101.615V101.615Z" fill="#C36B4F"/>
<path d="M73.4738 96.3247C89.6719 96.3247 102.803 79.5378 102.803 58.8301C102.803 38.1224 89.6719 21.3355 73.4738 21.3355C57.2757 21.3355 44.1445 38.1224 44.1445 58.8301C44.1445 79.5378 57.2757 96.3247 73.4738 96.3247Z" fill="#CE7C62"/>
<path d="M101.875 55.2396C101.875 55.2396 106.937 54.6247 107.395 59.4438C107.852 64.2629 106.237 67.9666 103.234 69.5682C103.234 69.5682 102.59 69.8828 101.117 70.1402L101.875 55.2539V55.2396Z" fill="#CE7C62"/>
<path d="M44.7313 55.2396C44.7313 55.2396 39.6691 54.6247 39.2115 59.4438C38.7539 64.2629 40.3698 67.9666 43.3728 69.5682C43.3728 69.5682 44.0163 69.8828 45.4892 70.1402L44.7313 55.2539V55.2396Z" fill="#FFB69F"/>
<path d="M44.1456 55.5843C44.1456 55.5843 42.0149 21.0641 73.4749 21.4788V57.6006L44.1456 55.5843V55.5843Z" fill="#CE7C62"/>
<path d="M102.79 55.5843C102.79 55.5843 104.921 21.0641 73.4609 21.4788V57.6006L102.79 55.5843V55.5843Z" fill="#CE7C62"/>
<path d="M53.3681 51.3093C58.2015 50.437 62.4772 51.1234 64.6508 51.5381C65.3086 51.6668 65.9664 51.3522 66.1666 50.8088C66.3954 50.1939 65.9664 49.5647 65.2228 49.4217C62.7489 48.9498 58.3016 48.2348 53.6398 49.865C52.9248 50.1224 51.6521 50.8231 52.0382 51.3808C52.2527 51.581 52.7246 51.4094 53.3681 51.295V51.3093Z" fill="#1F0900"/>
<path d="M93.8816 51.3241C89.0482 50.4518 84.7725 51.1382 82.5989 51.5529C81.9411 51.6816 81.2833 51.3527 81.0831 50.8093C80.8543 50.1944 81.2833 49.5509 82.0269 49.4079C84.5008 48.9217 88.9481 48.2067 93.6099 49.8655C94.3249 50.1229 95.5976 50.8236 95.2115 51.3956C94.997 51.5958 94.5251 51.4242 93.8816 51.3098V51.3241Z" fill="#1F0900"/>
<path d="M87.3319 61.8319C88.2875 61.8319 89.0622 60.4874 89.0622 58.8289C89.0622 57.1703 88.2875 55.8259 87.3319 55.8259C86.3762 55.8259 85.6016 57.1703 85.6016 58.8289C85.6016 60.4874 86.3762 61.8319 87.3319 61.8319Z" fill="#452614"/>
<path d="M61.3768 61.2174C62.3324 61.2174 63.1071 59.8729 63.1071 58.2144C63.1071 56.5559 62.3324 55.2114 61.3768 55.2114C60.4212 55.2114 59.6465 56.5559 59.6465 58.2144C59.6465 59.8729 60.4212 61.2174 61.3768 61.2174Z" fill="#452614"/>
<path d="M75.4908 72.3291H72.7595C71.544 72.3291 70.4715 71.8572 69.8995 71.0707C69.4848 70.513 69.3704 69.8552 69.5706 69.2117C70.1998 67.1525 70.7289 65.1934 70.7289 65.1934C70.829 64.8073 71.2294 64.5928 71.6012 64.6929C71.9873 64.793 72.2161 65.1934 72.1017 65.5652C72.1017 65.5652 71.5726 67.5529 70.9291 69.6264C70.8719 69.8409 70.9005 70.0268 71.0435 70.227C71.3438 70.6274 72.0159 70.8991 72.7595 70.8991H75.4908C75.8912 70.8991 76.2058 71.2137 76.2058 71.6141C76.2058 72.0145 75.8912 72.3291 75.4908 72.3291V72.3291Z" fill="#AC6048"/>
<path d="M69.2839 81.638C67.954 81.638 67.0817 81.5665 66.9816 81.5522C66.5955 81.5236 66.2952 81.1661 66.3381 80.78C66.3667 80.3796 66.7242 80.1079 67.1103 80.1222C67.1961 80.1222 75.2613 80.78 81.2387 77.8342C81.5962 77.6626 82.0252 77.8056 82.1968 78.1631C82.3684 78.5206 82.2254 78.9496 81.8679 79.1212C77.4921 81.2805 72.244 81.6237 69.2982 81.6237L69.2839 81.638Z" fill="#AC6048"/>
<path d="M88.7622 66.5375C91.5185 66.5375 93.7529 66.0253 93.7529 65.3935C93.7529 64.7616 91.5185 64.2495 88.7622 64.2495C86.0059 64.2495 83.7715 64.7616 83.7715 65.3935C83.7715 66.0253 86.0059 66.5375 88.7622 66.5375Z" fill="#E89C84"/>
<path d="M59.645 66.5375C62.4013 66.5375 64.6357 66.0253 64.6357 65.3935C64.6357 64.7616 62.4013 64.2495 59.645 64.2495C56.8887 64.2495 54.6543 64.7616 54.6543 65.3935C54.6543 66.0253 56.8887 66.5375 59.645 66.5375Z" fill="#E89C84"/>
<path d="M86.9874 106.25C86.9874 106.25 86.5727 101.446 86.3153 101.145C79.866 103.19 67.6967 102.961 58.2158 100.759C58.2158 100.759 57.4007 103.962 45.4888 112.356L27.9284 120.722L26.3125 149.765H116.603L113.6 119.464L87.0017 106.25H86.9874Z" fill="#941097"/>
<path d="M83.2416 20.2356C83.1987 20.1641 83.1701 20.0783 83.1272 20.0211C82.1977 18.4767 67.8834 17.8475 66.6965 18.2193C65.7384 18.5196 53.3975 25.6267 48.7071 28.3437C47.5488 29.0158 46.6622 30.0597 46.2046 31.3181L36.6808 57.1439C36.452 57.7588 36.3376 58.4166 36.3233 59.0887L35.9515 111.169C35.9372 114.115 34.3499 116.06 37.2814 116.36L50.18 117.833C52.9971 118.119 55.5854 116.317 56.3004 113.586L57.3014 107.909C57.6446 106.593 57.2442 105.564 57.4015 103.962C57.9449 98.6139 49.2219 86.273 50.466 82.5264C52.0104 77.8646 54.1268 72.8739 54.4986 66.5533C54.8704 60.2327 50.7806 49.0787 56.5435 35.5223C61.1767 24.6257 71.9303 26.7993 75.9629 28.072C76.2632 28.1721 76.5778 28.2293 76.8924 28.2722C76.8924 28.2722 100.058 35.4508 100.659 61.2194C100.659 61.2194 101.603 62.678 102.203 60.962C106.336 49.0501 100.974 22.7953 83.2273 20.2499L83.2416 20.2356Z" fill="#1F0900"/>
<path d="M102.76 67.9818C103.297 67.9818 103.732 67.5464 103.732 67.0094C103.732 66.4723 103.297 66.037 102.76 66.037C102.222 66.037 101.787 66.4723 101.787 67.0094C101.787 67.5464 102.222 67.9818 102.76 67.9818Z" fill="#E4B200"/>
</g>
<path d="M110 118L114.286 129C116.637 127.446 118.862 125.708 120.939 123.803L122 122.829L116 120.415L110 118Z" fill="#941097"/>
<path d="M22 123.333L28.5 120.5L27.7273 128L27.4702 127.837C25.4675 126.568 23.6301 125.055 22 123.333Z" fill="#941097"/>
<defs>
<clipPath id="clip0_1022_3507">
<rect width="143" height="143" rx="71.5" fill="white"/>
</clipPath>
</defs>
</svg>
