<svg width="143" height="143" viewBox="0 0 143 143" fill="none" xmlns="http://www.w3.org/2000/svg">
<g clip-path="url(#clip0_1022_3505)">
<rect width="143" height="143" rx="71.5" fill="white"/>
<circle cx="71.5" cy="71.5" r="71.5" fill="#DEF4FF"/>
<path d="M126.17 99.3694C131.089 87.3574 123.096 86.1276 114.773 79.9214C106.45 73.7152 120.007 71.0554 122.781 64.6776C125.555 58.2998 120.622 53.8096 114.473 50.4205C108.309 47.0314 99.3576 33.8468 99.3576 33.8468L98.9572 33.6609C103.605 42.9845 103.405 53.638 103.333 55.2253C104.82 55.3111 107.594 55.926 107.938 59.4438C108.395 64.2629 106.779 67.9666 103.776 69.5682C103.776 69.5682 103.204 69.8256 101.989 70.0687C98.2565 85.2839 87.1454 96.3378 74.0037 96.3378C60.862 96.3378 49.7366 85.2839 46.0186 70.0401V70.1402C44.5457 69.8828 43.9022 69.5682 43.9022 69.5682C40.8992 67.9666 39.2833 64.2629 39.7409 59.4438C40.0984 55.64 43.3302 55.2253 44.6744 55.211C44.6458 54.3244 44.5743 50.7351 45.2607 46.1591C42.987 47.2745 36.1659 50.9639 36.2946 55.211C36.4662 60.3161 37.9248 67.3231 31.3611 69.225C24.7974 71.1269 24.5686 83.3534 27.3285 89.5596C30.0884 95.7658 31.9474 99.6697 23.2816 103.459C14.6158 107.249 24.254 114.456 23.3245 128.298C22.395 142.141 35.0219 136.006 60.1613 131.387C85.3007 126.768 103.362 132.931 116.918 131.387C130.46 129.843 128.93 125.553 123.997 119.175C119.063 112.797 121.222 111.381 126.156 99.3694H126.17Z" fill="#C26B2C"/>
<path d="M78.194 23.9522L98.9719 33.6619C95.068 25.8398 87.7464 18.9472 74.0184 19.1331C52.883 18.8328 46.9199 35.3207 45.2754 46.1601C45.733 45.9313 46.019 45.8026 46.019 45.8026L78.194 23.9379V23.9522Z" fill="#C1735C"/>
<path d="M128.944 125.555C117.103 121.565 87.5166 106.25 87.5166 106.25H58.1015C58.1015 106.25 28.5291 121.565 16.6744 125.555C4.83398 129.545 4.83398 149.765 4.83398 149.765H140.798C140.798 149.765 140.798 129.545 128.958 125.555H128.944Z" fill="#2588BC"/>
<path d="M85.7001 92.2629H59.7742L57.8438 108.479L73.0875 141.155L87.7021 107.621L85.7001 92.2629Z" fill="#FFBCA6"/>
<path d="M59.8165 91.6344L58.6582 101.616C58.6582 101.616 78.7497 103.461 85.8282 94.6517V93.1502C82.2103 95.1951 78.2206 96.3391 74.0021 96.3391C68.8541 96.3391 64.0207 94.6231 59.8165 91.6344Z" fill="#FEAF95"/>
<path d="M107.951 59.4451C107.622 55.9273 104.834 55.3124 103.347 55.2266C103.404 53.6393 103.618 42.9858 98.9707 33.6622L78.1928 23.9525L46.0178 45.8172C46.0178 45.8172 45.7318 45.9459 45.2742 46.1747C44.5735 50.7507 44.645 54.34 44.6879 55.2266C43.3437 55.2266 40.1119 55.6556 39.7544 59.4594C39.2968 64.2785 40.9127 67.9822 43.9157 69.5838C43.9157 69.5838 44.5592 69.8984 46.0321 70.1558V70.0557C48.2915 79.3221 53.2965 87.0298 59.8316 91.6487C64.0358 94.6374 68.8692 96.3534 74.0172 96.3534C78.2214 96.3534 82.2254 95.2094 85.8433 93.1645C93.5224 88.8316 99.4712 80.4232 102.002 70.0843C103.232 69.8412 103.79 69.5838 103.79 69.5838C106.793 67.9822 108.409 64.2785 107.951 59.4594V59.4451Z" fill="#FFBCA6"/>
<path d="M53.8264 50.68C58.7313 50.3368 62.9069 51.4808 65.0233 52.1243C65.6668 52.3245 66.3389 52.0671 66.6106 51.5666C66.8966 50.9803 66.5391 50.3082 65.8241 50.0794C63.4217 49.3358 59.0745 48.1489 54.2554 49.2786C53.5118 49.4502 52.1819 50.0079 52.4965 50.6228C52.6824 50.8373 53.1829 50.7372 53.8264 50.6943V50.68Z" fill="#C26B2C"/>
<path d="M94.4794 50.922C89.5888 50.3786 85.3846 51.3653 83.2396 51.9373C82.5961 52.1089 81.924 51.8372 81.6809 51.3081C81.4092 50.7075 81.7953 50.0354 82.5246 49.8495C84.9556 49.1917 89.3457 48.1764 94.1219 49.492C94.8512 49.6922 96.1668 50.3071 95.8236 50.9077C95.6234 51.1222 95.1372 50.9935 94.4937 50.9077L94.4794 50.922Z" fill="#C26B2C"/>
<path d="M87.8748 61.8319C88.8304 61.8319 89.6051 60.4874 89.6051 58.8289C89.6051 57.1703 88.8304 55.8259 87.8748 55.8259C86.9192 55.8259 86.1445 57.1703 86.1445 58.8289C86.1445 60.4874 86.9192 61.8319 87.8748 61.8319Z" fill="#5E291E"/>
<path d="M61.9198 61.2174C62.8754 61.2174 63.6501 59.8729 63.6501 58.2144C63.6501 56.5559 62.8754 55.2114 61.9198 55.2114C60.9641 55.2114 60.1895 56.5559 60.1895 58.2144C60.1895 59.8729 60.9641 61.2174 61.9198 61.2174Z" fill="#5E291E"/>
<path d="M76.0475 72.3291H73.3162C72.1007 72.3291 71.0282 71.8572 70.4562 71.0707C70.0415 70.513 69.9271 69.8552 70.1273 69.2117C70.7565 67.1668 71.2856 65.2077 71.2856 65.1934C71.3857 64.8073 71.7718 64.5928 72.1579 64.6929C72.544 64.793 72.7728 65.1934 72.6584 65.5652C72.6584 65.5652 72.1293 67.5529 71.4858 69.6264C71.4286 69.8409 71.4572 70.0268 71.6002 70.227C71.9005 70.6417 72.5726 70.8991 73.3162 70.8991H76.0475C76.4479 70.8991 76.7625 71.2137 76.7625 71.6141C76.7625 72.0145 76.4479 72.3291 76.0475 72.3291V72.3291Z" fill="#A5503C"/>
<path d="M73.4317 81.3241C70.0998 81.3241 67.5687 80.8665 67.3828 80.8236C66.9967 80.7521 66.7393 80.3803 66.8108 79.9942C66.8823 79.6081 67.2541 79.3507 67.6402 79.4222C67.7117 79.4222 75.6911 80.8951 81.9259 78.5642C82.2977 78.4212 82.7124 78.6071 82.8411 78.9789C82.9841 79.3507 82.7839 79.7654 82.4264 79.8941C79.4377 81.0095 76.163 81.3241 73.4174 81.3241H73.4317Z" fill="#A5503C"/>
<path d="M89.3052 66.5375C92.0614 66.5375 94.2959 66.0253 94.2959 65.3935C94.2959 64.7616 92.0614 64.2495 89.3052 64.2495C86.5489 64.2495 84.3145 64.7616 84.3145 65.3935C84.3145 66.0253 86.5489 66.5375 89.3052 66.5375Z" fill="#FFA98D"/>
<path d="M60.188 66.5375C62.9443 66.5375 65.1787 66.0253 65.1787 65.3935C65.1787 64.7616 62.9443 64.2495 60.188 64.2495C57.4317 64.2495 55.1973 64.7616 55.1973 65.3935C55.1973 66.0253 57.4317 66.5375 60.188 66.5375Z" fill="#FFA98D"/>
<path d="M43.6436 47.1038L43.7294 47.7759L39.6682 51.9944L36.5508 61.2179C36.5508 61.2179 40.1973 73.044 45.3882 80.3799C50.5648 87.7301 48.2053 76.6333 46.0174 70.0267C43.8295 63.4201 47.9193 63.3343 48.8774 58.8298C49.478 55.9841 48.4198 53.3672 47.5618 51.8371C46.8039 49.2202 47.476 46.0742 51.0653 45.1018C59.4737 42.7995 53.9682 28.857 53.9682 28.857C49.1348 31.9601 44.9306 44.4869 43.6579 47.0895L43.6436 47.1038Z" fill="#C26B2C"/>
<path d="M108.022 51.9944L105.048 52.2232C103.832 45.9455 101.158 33.5617 98.7414 32.2747C95.481 30.5444 91.7773 33.3615 91.7773 33.3615C91.7773 33.3615 93.6363 43.5002 97.7118 45.7882C100.129 47.1467 100.114 50.2069 100.171 52.4663C98.77 59.7736 95.1378 67.896 103.332 75.2319C112.269 83.2256 114.2 61.8328 114.2 61.8328L108.022 51.9944V51.9944Z" fill="#C26B2C"/>
<path d="M51.2955 118.347C51.0238 118.347 50.7664 118.204 50.652 117.946C50.4804 117.589 50.6377 117.16 50.9809 116.988L56.372 114.4C56.7295 114.228 57.1585 114.386 57.3301 114.743C57.5017 115.101 57.3444 115.53 57.0012 115.701L51.6101 118.289C51.51 118.332 51.4099 118.361 51.2955 118.361V118.347Z" fill="#004760"/>
<path d="M53.7544 126.854C53.4827 126.854 53.2253 126.711 53.1109 126.454C52.9393 126.096 53.0966 125.667 53.4398 125.496L58.831 122.907C59.1885 122.736 59.6175 122.893 59.7891 123.236C59.9607 123.58 59.8034 124.023 59.4602 124.194L54.0691 126.783C53.969 126.826 53.8688 126.854 53.7544 126.854Z" fill="#004760"/>
<path d="M56.8873 136.909C56.6156 136.909 56.3582 136.766 56.2438 136.509C56.0722 136.151 56.2295 135.722 56.5727 135.55L61.9638 132.962C62.3213 132.791 62.7503 132.948 62.9219 133.291C63.0935 133.649 62.9362 134.078 62.593 134.249L57.2019 136.837C57.1018 136.88 57.0017 136.909 56.8873 136.909Z" fill="#004760"/>
<path d="M93.3648 118.347C93.2647 118.347 93.1503 118.318 93.0502 118.275L87.6591 115.687C87.3016 115.516 87.1586 115.087 87.3302 114.729C87.5018 114.372 87.9308 114.214 88.2883 114.386L93.6794 116.974C94.0369 117.146 94.1799 117.575 94.0083 117.932C93.8796 118.19 93.6365 118.333 93.3648 118.333V118.347Z" fill="#004760"/>
<path d="M90.9058 126.854C90.8057 126.854 90.6913 126.825 90.5912 126.782L85.2001 124.194C84.8426 124.023 84.6996 123.594 84.8712 123.236C85.0428 122.879 85.4718 122.736 85.8293 122.907L91.2204 125.495C91.5779 125.667 91.7209 126.096 91.5493 126.454C91.4206 126.711 91.1775 126.854 90.9058 126.854Z" fill="#004760"/>
<path d="M87.7749 136.909C87.6748 136.909 87.5604 136.88 87.4603 136.837L82.0692 134.249C81.7117 134.077 81.5687 133.648 81.7403 133.291C81.9119 132.933 82.3409 132.79 82.6984 132.962L88.0895 135.55C88.447 135.722 88.59 136.151 88.4184 136.508C88.2897 136.766 88.0466 136.909 87.7749 136.909Z" fill="#004760"/>
</g>
<path opacity="0.5" d="M62.0526 54H55C54.4477 54 54 54.4477 54 55V56C54 60.4183 57.5817 64 62 64H63.5346C67.0407 64 70.006 61.4061 70.4724 57.9311L70.6959 56.266C70.8569 55.0665 69.9239 54 68.7136 54H62.0526Z" stroke="black" stroke-width="1.2"/>
<path opacity="0.5" d="M88.4211 54H95C95.5523 54 96 54.4477 96 55V56C96 60.4183 92.4183 64 88 64H87.4346C83.9078 64 80.9317 61.3762 80.4898 57.8772L80.2843 56.2506C80.1334 55.0561 81.0645 54 82.2685 54H88.4211Z" stroke="black" stroke-width="1.2"/>
<path d="M65.5121 38.2842C63.632 39.3279 60.3333 39.7764 57.9131 39.9314C56.6231 40.0141 55.3465 39.7392 54.1299 39.3022C52.7137 38.7934 51.0882 38.2842 50.3383 38.2842C48.9333 38.2842 52.3053 27.1315 53.1483 24.8438C53.9913 22.5561 63.2642 18.5526 67.1981 16.5508C68.4915 15.8927 70.2721 15.8882 72.103 16.2038C76.3933 16.9435 78.764 21.5653 77.1859 25.6228C76.5022 27.3807 75.6823 28.6628 74.785 28.5614C72.2561 28.2754 68.6031 36.5684 65.5121 38.2842Z" fill="#C26B2C"/>
<path d="M95.2295 40.9859C82.3703 41.4285 72.4372 31.3482 69 27.9367C69 24.7095 69.4246 18.0339 71.123 17.1487C72.2251 16.5743 77.2179 17.7548 82.0244 19.1333C86.6906 20.4715 91.1585 22.6041 94.5346 26.0921C100.562 32.3194 105.103 40.646 95.2295 40.9859Z" fill="#C26B2C"/>
<path d="M45.5319 30.2575C46.4499 28.7334 52.7619 23.9268 56 22L48.0299 43.7448C45.1619 48.057 36.4606 59.4891 38.2369 53.1033C40.4574 45.121 38.2369 42.3685 45.5319 30.2575Z" fill="#C26B2C"/>
<path d="M71 55L75.5 55L80 55" stroke="#7F5E53"/>
<defs>
<clipPath id="clip0_1022_3505">
<rect width="143" height="143" rx="71.5" fill="white"/>
</clipPath>
</defs>
</svg>
