<svg width="1440" height="809" viewBox="0 0 1440 809" fill="none" xmlns="http://www.w3.org/2000/svg">
<g clip-path="url(#clip0_987_3472)">
<rect width="1440" height="809" fill="white"/>
<path d="M28.6948 707.835L91.3208 707.422C94.8681 707.553 98.3187 708.359 101.395 709.776C104.47 711.192 107.084 713.178 109.026 715.574L140.256 759.354C141.857 761.919 142.688 764.759 142.681 767.645C142.675 770.532 141.831 773.383 140.218 775.97L108.822 820.163C106.86 822.586 104.232 824.61 101.148 826.073C98.0628 827.537 94.6072 828.399 91.0548 828.593L28.4283 829.005C24.874 828.87 21.4173 828.059 18.3374 826.636C15.2577 825.214 12.6409 823.221 10.6987 820.819L-20.5309 777.038C-22.1251 774.478 -22.9502 771.643 -22.9395 768.762C-22.9286 765.882 -22.0824 763.037 -20.4688 760.457L10.9276 716.264C12.8893 713.841 15.517 711.817 18.6016 710.354C21.6863 708.89 25.1426 708.028 28.6948 707.835Z" fill="#ECD3FF" fill-opacity="0.5"/>
<path d="M1500.7 707.449L1563.33 707.037C1566.87 707.168 1570.32 707.974 1573.4 709.39C1576.48 710.806 1579.09 712.793 1581.03 715.189L1612.26 758.969C1613.86 761.533 1614.69 764.374 1614.69 767.26C1614.68 770.146 1613.84 772.998 1612.22 775.584L1580.83 819.778C1578.87 822.201 1576.24 824.224 1573.15 825.688C1570.07 827.151 1566.61 828.014 1563.06 828.207L1500.43 828.62C1496.88 828.485 1493.42 827.673 1490.34 826.251C1487.26 824.829 1484.65 822.836 1482.7 820.433L1451.47 776.653C1449.88 774.092 1449.06 771.257 1449.07 768.377C1449.08 765.496 1449.92 762.651 1451.54 760.072L1482.93 715.879C1484.89 713.456 1487.52 711.432 1490.61 709.969C1493.69 708.505 1497.15 707.642 1500.7 707.449Z" fill="#ECD3FF" fill-opacity="0.5"/>
<path d="M-116.77 502.67L-54.1445 502.258C-50.5972 502.389 -47.1466 503.195 -44.0708 504.611C-40.9952 506.027 -38.381 508.014 -36.4395 510.41L-5.20981 554.19C-3.60854 556.754 -2.77765 559.595 -2.78415 562.481C-2.79056 565.367 -3.63435 568.219 -5.24733 570.805L-36.6432 614.999C-38.6049 617.422 -41.2332 619.445 -44.3178 620.909C-47.4025 622.372 -50.8581 623.235 -54.4105 623.428L-117.037 623.841C-120.591 623.706 -124.048 622.894 -127.128 621.472C-130.208 620.05 -132.824 618.057 -134.767 615.654L-165.996 571.874C-167.59 569.313 -168.416 566.478 -168.405 563.598C-168.394 560.717 -167.548 557.872 -165.934 555.293L-134.538 511.1C-132.576 508.677 -129.948 506.653 -126.864 505.189C-123.779 503.726 -120.323 502.863 -116.77 502.67Z" fill="#ECD3FF" fill-opacity="0.5"/>
<path d="M-123.229 365.751L-60.603 365.339C-57.0557 365.47 -53.6051 366.276 -50.5293 367.692C-47.4537 369.108 -44.8395 371.095 -42.898 373.491L-11.6683 417.271C-10.067 419.835 -9.23614 422.676 -9.24265 425.562C-9.24905 428.448 -10.0928 431.3 -11.7058 433.886L-43.1017 478.08C-45.0634 480.503 -47.6916 482.526 -50.7763 483.99C-53.861 485.453 -57.3166 486.316 -60.869 486.509L-123.496 486.922C-127.05 486.787 -130.507 485.975 -133.586 484.553C-136.666 483.131 -139.283 481.138 -141.225 478.735L-172.455 434.955C-174.049 432.394 -174.874 429.559 -174.863 426.679C-174.852 423.798 -174.006 420.953 -172.393 418.374L-140.996 374.181C-139.034 371.758 -136.407 369.734 -133.322 368.27C-130.238 366.807 -126.781 365.944 -123.229 365.751Z" fill="#ECD3FF" fill-opacity="0.5"/>
<path d="M180.266 640.196L242.892 639.783C246.439 639.914 249.89 640.721 252.966 642.137C256.041 643.553 258.656 645.539 260.597 647.935L291.827 691.715C293.428 694.28 294.259 697.12 294.252 700.006C294.246 702.893 293.402 705.744 291.789 708.331L260.393 752.525C258.432 754.947 255.803 756.971 252.719 758.434C249.634 759.898 246.178 760.761 242.626 760.954L180 761.366C176.445 761.231 172.989 760.42 169.909 758.998C166.829 757.576 164.212 755.583 162.27 753.18L131.04 709.4C129.446 706.839 128.621 704.004 128.632 701.123C128.643 698.243 129.489 695.398 131.102 692.818L162.499 648.625C164.461 646.202 167.088 644.178 170.173 642.715C173.258 641.252 176.714 640.389 180.266 640.196Z" fill="#ECD3FF" fill-opacity="0.5"/>
<path d="M176.76 500.302L239.386 499.89C242.934 500.021 246.384 500.827 249.46 502.243C252.536 503.659 255.15 505.646 257.091 508.042L288.321 551.822C289.922 554.386 290.753 557.227 290.747 560.113C290.74 562.999 289.896 565.851 288.283 568.437L256.888 612.631C254.926 615.054 252.298 617.077 249.213 618.541C246.128 620.004 242.673 620.867 239.12 621.06L176.494 621.473C172.939 621.338 169.483 620.526 166.403 619.104C163.323 617.682 160.706 615.689 158.764 613.286L127.535 569.506C125.94 566.945 125.115 564.11 125.126 561.23C125.137 558.349 125.983 555.504 127.597 552.925L158.993 508.732C160.955 506.309 163.582 504.285 166.667 502.822C169.752 501.358 173.208 500.495 176.76 500.302Z" fill="#ECD3FF" fill-opacity="0.5"/>
<path d="M28.1914 433.859L90.8174 433.446C94.3647 433.577 97.8153 434.384 100.891 435.8C103.967 437.216 106.581 439.202 108.522 441.598L139.752 485.378C141.353 487.943 142.184 490.783 142.178 493.669C142.171 496.556 141.328 499.408 139.715 501.994L108.319 546.188C106.357 548.61 103.729 550.634 100.644 552.097C97.5594 553.561 94.1038 554.424 90.5514 554.617L27.9249 555.029C24.3706 554.894 20.9139 554.083 17.834 552.661C14.7542 551.239 12.1375 549.246 10.1953 546.843L-21.0343 503.063C-22.6285 500.502 -23.4536 497.667 -23.4429 494.786C-23.432 491.906 -22.5858 489.061 -20.9723 486.481L10.4241 442.288C12.3859 439.865 15.0136 437.842 18.0982 436.378C21.1829 434.915 24.6392 434.052 28.1914 433.859Z" fill="#ECD3FF" fill-opacity="0.5"/>
<path d="M180.267 777.203L242.893 776.79C246.44 776.921 249.891 777.728 252.967 779.144C256.042 780.56 258.657 782.546 260.598 784.942L291.828 828.722C293.429 831.287 294.26 834.127 294.253 837.013C294.247 839.9 293.403 842.751 291.79 845.338L260.394 889.532C258.433 891.954 255.804 893.978 252.72 895.441C249.635 896.905 246.179 897.768 242.627 897.961L180.001 898.373C176.446 898.238 172.99 897.427 169.91 896.005C166.83 894.583 164.213 892.59 162.271 890.187L131.041 846.407C129.447 843.846 128.622 841.011 128.633 838.13C128.644 835.25 129.49 832.405 131.103 829.825L162.5 785.632C164.462 783.209 167.089 781.185 170.174 779.722C173.259 778.259 176.715 777.396 180.267 777.203Z" fill="#ECD3FF" fill-opacity="0.5"/>
<path d="M470.847 771.884L533.473 771.471C537.02 771.602 540.471 772.408 543.547 773.824C546.622 775.241 549.237 777.227 551.178 779.623L582.408 823.403C584.009 825.968 584.84 828.808 584.834 831.694C584.827 834.581 583.983 837.432 582.37 840.019L550.974 884.212C549.013 886.635 546.385 888.659 543.3 890.122C540.215 891.585 536.76 892.448 533.207 892.642L470.581 893.054C467.026 892.919 463.57 892.108 460.49 890.685C457.41 889.263 454.793 887.27 452.851 884.867L421.621 841.087C420.027 838.527 419.202 835.691 419.213 832.811C419.224 829.931 420.07 827.086 421.683 824.506L453.08 780.313C455.042 777.89 457.669 775.866 460.754 774.403C463.839 772.939 467.295 772.077 470.847 771.884Z" fill="#ECD3FF" fill-opacity="0.5"/>
<path d="M470.848 637.09L533.474 636.677C537.021 636.808 540.472 637.615 543.547 639.031C546.623 640.447 549.237 642.433 551.179 644.829L582.408 688.609C584.01 691.174 584.841 694.014 584.834 696.901C584.828 699.787 583.984 702.639 582.371 705.225L550.975 749.419C549.013 751.841 546.385 753.865 543.3 755.328C540.216 756.792 536.76 757.655 533.208 757.848L470.581 758.26C467.027 758.125 463.57 757.314 460.49 755.892C457.41 754.47 454.794 752.477 452.852 750.074L421.622 706.294C420.028 703.733 419.203 700.898 419.213 698.017C419.224 695.137 420.07 692.292 421.684 689.712L453.08 645.519C455.042 643.096 457.67 641.073 460.754 639.609C463.839 638.146 467.295 637.283 470.848 637.09Z" fill="#ECD3FF" fill-opacity="0.5"/>
<path d="M617.674 704.471L680.3 704.058C683.848 704.189 687.298 704.995 690.374 706.412C693.45 707.828 696.064 709.814 698.005 712.21L729.235 755.99C730.836 758.555 731.667 761.395 731.661 764.281C731.654 767.168 730.81 770.019 729.197 772.606L697.802 816.799C695.84 819.222 693.212 821.246 690.127 822.709C687.042 824.173 683.587 825.035 680.034 825.229L617.408 825.641C613.853 825.506 610.397 824.695 607.317 823.272C604.237 821.85 601.62 819.857 599.678 817.455L568.449 773.674C566.854 771.114 566.029 768.279 566.04 765.398C566.051 762.518 566.897 759.673 568.511 757.093L599.907 712.9C601.869 710.477 604.496 708.453 607.581 706.99C610.666 705.526 614.122 704.664 617.674 704.471Z" fill="#ECD3FF" fill-opacity="0.5"/>
<path d="M617.675 569.677L680.301 569.264C683.848 569.395 687.299 570.202 690.375 571.618C693.45 573.034 696.064 575.02 698.006 577.416L729.236 621.197C730.837 623.761 731.668 626.601 731.661 629.488C731.655 632.374 730.811 635.226 729.198 637.812L697.802 682.006C695.84 684.429 693.212 686.452 690.127 687.915C687.043 689.379 683.587 690.242 680.035 690.435L617.408 690.847C613.854 690.712 610.397 689.901 607.317 688.479C604.238 687.057 601.621 685.064 599.679 682.661L568.449 638.881C566.855 636.32 566.03 633.485 566.04 630.604C566.051 627.724 566.898 624.879 568.511 622.3L599.908 578.106C601.869 575.683 604.497 573.66 607.582 572.196C610.666 570.733 614.123 569.87 617.675 569.677Z" fill="#ECD3FF" fill-opacity="0.5"/>
<path d="M470.848 495.41L533.474 494.997C537.021 495.128 540.472 495.934 543.547 497.35C546.623 498.767 549.237 500.753 551.179 503.149L582.408 546.929C584.01 549.494 584.841 552.334 584.834 555.22C584.828 558.106 583.984 560.958 582.371 563.545L550.975 607.738C549.013 610.161 546.385 612.184 543.3 613.648C540.216 615.111 536.76 615.974 533.208 616.167L470.581 616.58C467.027 616.445 463.57 615.633 460.49 614.211C457.41 612.789 454.794 610.796 452.852 608.393L421.622 564.613C420.028 562.052 419.203 559.217 419.213 556.337C419.224 553.456 420.07 550.612 421.684 548.032L453.08 503.839C455.042 501.416 457.67 499.392 460.754 497.929C463.839 496.465 467.295 495.602 470.848 495.41Z" fill="#ECD3FF" fill-opacity="0.5"/>
<path d="M326.634 705.745L389.26 705.332C392.807 705.463 396.258 706.27 399.334 707.686C402.409 709.102 405.023 711.088 406.965 713.484L438.194 757.264C439.796 759.829 440.627 762.669 440.62 765.555C440.614 768.442 439.77 771.293 438.157 773.88L406.761 818.074C404.799 820.496 402.171 822.52 399.086 823.983C396.002 825.447 392.546 826.31 388.994 826.503L326.367 826.915C322.813 826.78 319.356 825.969 316.276 824.547C313.197 823.125 310.58 821.132 308.638 818.729L277.408 774.949C275.814 772.388 274.989 769.553 274.999 766.672C275.01 763.792 275.857 760.947 277.47 758.367L308.867 714.174C310.828 711.751 313.456 709.727 316.541 708.264C319.625 706.801 323.082 705.938 326.634 705.745Z" fill="#ECD3FF" fill-opacity="0.5"/>
<path d="M-116.235 779.659L-53.6088 779.247C-50.0616 779.378 -46.6109 780.184 -43.5351 781.6C-40.4596 783.016 -37.8454 785.003 -35.9038 787.399L-4.67416 831.179C-3.0729 833.744 -2.242 836.584 -2.24851 839.47C-2.25491 842.356 -3.0987 845.208 -4.71169 847.794L-36.1076 891.988C-38.0692 894.411 -40.6975 896.434 -43.7822 897.898C-46.8668 899.361 -50.3225 900.224 -53.8748 900.417L-116.501 900.83C-120.056 900.695 -123.512 899.883 -126.592 898.461C-129.672 897.039 -132.289 895.046 -134.231 892.643L-165.461 848.863C-167.055 846.302 -167.88 843.467 -167.869 840.587C-167.858 837.706 -167.012 834.862 -165.399 832.282L-134.002 788.089C-132.04 785.666 -129.413 783.642 -126.328 782.179C-123.243 780.715 -119.787 779.852 -116.235 779.659Z" fill="#ECD3FF" fill-opacity="0.5"/>
<path d="M31.7471 572.595L94.3731 572.182C97.9203 572.313 101.371 573.119 104.447 574.535C107.522 575.952 110.137 577.938 112.078 580.334L143.308 624.114C144.909 626.679 145.74 629.519 145.733 632.405C145.727 635.291 144.883 638.143 143.27 640.73L111.874 684.923C109.913 687.346 107.284 689.369 104.2 690.833C101.115 692.296 97.6595 693.159 94.1071 693.352L31.4806 693.765C27.9262 693.63 24.4696 692.818 21.3897 691.396C18.3099 689.974 15.6932 687.981 13.751 685.578L-17.4787 641.798C-19.0729 639.237 -19.8979 636.402 -19.8872 633.522C-19.8763 630.641 -19.0302 627.797 -17.4166 625.217L13.9798 581.024C15.9416 578.601 18.5692 576.577 21.6539 575.114C24.7385 573.65 28.1948 572.787 31.7471 572.595Z" fill="#ECD3FF" fill-opacity="0.5"/>
<path d="M-114.62 641.345L-51.9936 640.932C-48.4464 641.063 -44.9957 641.869 -41.9199 643.285C-38.8443 644.702 -36.2302 646.688 -34.2886 649.084L-3.05893 692.864C-1.45766 695.429 -0.626768 698.269 -0.633278 701.155C-0.639677 704.042 -1.48348 706.893 -3.09647 709.48L-34.4923 753.673C-36.454 756.096 -39.0823 758.12 -42.1669 759.583C-45.2516 761.046 -48.7073 761.909 -52.2596 762.102L-114.886 762.515C-118.44 762.38 -121.897 761.569 -124.977 760.146C-128.057 758.724 -130.674 756.731 -132.616 754.328L-163.845 710.548C-165.44 707.987 -166.265 705.152 -166.254 702.272C-166.243 699.391 -165.397 696.547 -163.783 693.967L-132.387 649.774C-130.425 647.351 -127.797 645.327 -124.713 643.864C-121.628 642.4 -118.172 641.538 -114.62 641.345Z" fill="#ECD3FF" fill-opacity="0.5"/>
<path d="M324.48 568.837L387.106 568.424C390.653 568.555 394.104 569.361 397.18 570.777C400.255 572.194 402.869 574.18 404.811 576.576L436.041 620.356C437.642 622.921 438.473 625.761 438.466 628.647C438.46 631.534 437.616 634.385 436.003 636.972L404.607 681.165C402.646 683.588 400.017 685.612 396.933 687.075C393.848 688.538 390.392 689.401 386.84 689.595L324.213 690.007C320.659 689.872 317.202 689.061 314.123 687.638C311.043 686.216 308.426 684.223 306.484 681.82L275.254 638.04C273.66 635.48 272.835 632.644 272.846 629.764C272.857 626.884 273.703 624.039 275.316 621.459L306.713 577.266C308.674 574.843 311.302 572.819 314.387 571.356C317.471 569.892 320.928 569.03 324.48 568.837Z" fill="#ECD3FF" fill-opacity="0.5"/>
<path d="M765.045 771.891L827.671 771.478C831.218 771.61 834.669 772.416 837.745 773.832C840.82 775.248 843.434 777.235 845.376 779.631L876.606 823.411C878.207 825.975 879.038 828.816 879.031 831.702C879.025 834.588 878.181 837.44 876.568 840.026L845.172 884.22C843.211 886.643 840.582 888.666 837.498 890.13C834.413 891.593 830.957 892.456 827.405 892.649L764.778 893.062C761.224 892.927 757.767 892.115 754.688 890.693C751.608 889.271 748.991 887.278 747.049 884.875L715.819 841.095C714.225 838.534 713.4 835.699 713.411 832.819C713.422 829.938 714.268 827.093 715.881 824.514L747.278 780.32C749.239 777.897 751.867 775.874 754.952 774.41C758.036 772.947 761.493 772.084 765.045 771.891Z" fill="#ECD3FF" fill-opacity="0.5"/>
<path d="M765.045 637.098L827.671 636.685C831.219 636.816 834.669 637.622 837.745 639.038C840.821 640.455 843.435 642.441 845.376 644.837L876.606 688.617C878.207 691.182 879.038 694.022 879.032 696.908C879.025 699.795 878.182 702.646 876.569 705.233L845.173 749.426C843.211 751.849 840.583 753.873 837.498 755.336C834.413 756.799 830.958 757.662 827.405 757.855L764.779 758.268C761.225 758.133 757.768 757.322 754.688 755.899C751.608 754.477 748.991 752.484 747.049 750.081L715.82 706.301C714.225 703.74 713.4 700.905 713.411 698.025C713.422 695.144 714.268 692.3 715.882 689.72L747.278 645.527C749.24 643.104 751.868 641.08 754.952 639.617C758.037 638.153 761.493 637.291 765.045 637.098Z" fill="#ECD3FF" fill-opacity="0.5"/>
<path d="M913.614 704.471L976.24 704.058C979.787 704.189 983.238 704.995 986.313 706.412C989.389 707.828 992.003 709.814 993.945 712.21L1025.17 755.99C1026.78 758.555 1027.61 761.395 1027.6 764.281C1027.59 767.168 1026.75 770.019 1025.14 772.606L993.741 816.8C991.779 819.222 989.151 821.246 986.066 822.709C982.982 824.173 979.526 825.035 975.974 825.229L913.347 825.641C909.793 825.506 906.336 824.695 903.256 823.273C900.177 821.85 897.56 819.858 895.618 817.455L864.388 773.674C862.794 771.114 861.969 768.279 861.979 765.398C861.99 762.518 862.837 759.673 864.45 757.093L895.847 712.9C897.808 710.477 900.436 708.453 903.521 706.99C906.605 705.526 910.062 704.664 913.614 704.471Z" fill="#ECD3FF" fill-opacity="0.5"/>
<path d="M913.614 569.677L976.24 569.264C979.788 569.395 983.238 570.202 986.314 571.618C989.39 573.034 992.004 575.02 993.945 577.416L1025.17 621.197C1026.78 623.761 1027.61 626.601 1027.6 629.488C1027.59 632.374 1026.75 635.226 1025.14 637.812L993.742 682.006C991.78 684.429 989.152 686.452 986.067 687.915C982.982 689.379 979.527 690.242 975.974 690.435L913.348 690.847C909.793 690.712 906.337 689.901 903.257 688.479C900.177 687.057 897.56 685.064 895.618 682.661L864.389 638.881C862.794 636.32 861.969 633.485 861.98 630.604C861.991 627.724 862.837 624.879 864.451 622.3L895.847 578.106C897.809 575.683 900.436 573.66 903.521 572.196C906.606 570.733 910.062 569.87 913.614 569.677Z" fill="#ECD3FF" fill-opacity="0.5"/>
<path d="M1062.18 771.891L1124.81 771.478C1128.36 771.609 1131.81 772.416 1134.88 773.832C1137.96 775.248 1140.57 777.234 1142.51 779.63L1173.74 823.411C1175.34 825.975 1176.18 828.815 1176.17 831.702C1176.16 834.588 1175.32 837.44 1173.71 840.026L1142.31 884.22C1140.35 886.643 1137.72 888.666 1134.64 890.13C1131.55 891.593 1128.1 892.456 1124.54 892.649L1061.92 893.061C1058.36 892.926 1054.91 892.115 1051.83 890.693C1048.75 889.271 1046.13 887.278 1044.19 884.875L1012.96 841.095C1011.36 838.534 1010.54 835.699 1010.55 832.819C1010.56 829.938 1011.41 827.093 1013.02 824.514L1044.42 780.32C1046.38 777.897 1049 775.874 1052.09 774.41C1055.17 772.947 1058.63 772.084 1062.18 771.891Z" fill="#ECD3FF" fill-opacity="0.5"/>
<path d="M1062.18 637.098L1124.81 636.685C1128.36 636.816 1131.81 637.622 1134.88 639.038C1137.96 640.455 1140.57 642.441 1142.51 644.837L1173.74 688.617C1175.35 691.182 1176.18 694.022 1176.17 696.908C1176.16 699.794 1175.32 702.646 1173.71 705.233L1142.31 749.426C1140.35 751.849 1137.72 753.872 1134.64 755.336C1131.55 756.799 1128.1 757.662 1124.54 757.855L1061.92 758.268C1058.36 758.133 1054.91 757.321 1051.83 755.899C1048.75 754.477 1046.13 752.484 1044.19 750.081L1012.96 706.301C1011.36 703.74 1010.54 700.905 1010.55 698.025C1010.56 695.144 1011.41 692.3 1013.02 689.72L1044.42 645.527C1046.38 643.104 1049.01 641.08 1052.09 639.617C1055.17 638.153 1058.63 637.29 1062.18 637.098Z" fill="#ECD3FF" fill-opacity="0.5"/>
<path d="M1208.36 705.448L1270.98 705.035C1274.53 705.166 1277.98 705.973 1281.05 707.389C1284.13 708.805 1286.74 710.791 1288.69 713.187L1319.92 756.967C1321.52 759.532 1322.35 762.372 1322.34 765.258C1322.33 768.145 1321.49 770.996 1319.88 773.583L1288.48 817.777C1286.52 820.199 1283.89 822.223 1280.81 823.686C1277.72 825.15 1274.27 826.013 1270.72 826.206L1208.09 826.618C1204.53 826.483 1201.08 825.672 1198 824.25C1194.92 822.828 1192.3 820.835 1190.36 818.432L1159.13 774.652C1157.54 772.091 1156.71 769.256 1156.72 766.375C1156.73 763.495 1157.58 760.65 1159.19 758.07L1190.59 713.877C1192.55 711.454 1195.18 709.43 1198.26 707.967C1201.35 706.504 1204.8 705.641 1208.36 705.448Z" fill="#ECD3FF" fill-opacity="0.5"/>
<path d="M1208.36 570.654L1270.98 570.241C1274.53 570.372 1277.98 571.179 1281.06 572.595C1284.13 574.011 1286.74 575.997 1288.69 578.393L1319.92 622.174C1321.52 624.738 1322.35 627.578 1322.34 630.465C1322.34 633.351 1321.49 636.203 1319.88 638.789L1288.48 682.983C1286.52 685.406 1283.89 687.429 1280.81 688.893C1277.72 690.356 1274.27 691.219 1270.72 691.412L1208.09 691.824C1204.53 691.689 1201.08 690.878 1198 689.456C1194.92 688.034 1192.3 686.041 1190.36 683.638L1159.13 639.858C1157.54 637.297 1156.71 634.462 1156.72 631.582C1156.73 628.701 1157.58 625.856 1159.19 623.277L1190.59 579.083C1192.55 576.66 1195.18 574.637 1198.26 573.173C1201.35 571.71 1204.8 570.847 1208.36 570.654Z" fill="#ECD3FF" fill-opacity="0.5"/>
<path d="M1356.92 772.868L1419.55 772.456C1423.1 772.587 1426.55 773.393 1429.62 774.809C1432.7 776.225 1435.31 778.212 1437.25 780.608L1468.48 824.388C1470.09 826.952 1470.92 829.793 1470.91 832.679C1470.9 835.565 1470.06 838.417 1468.45 841.003L1437.05 885.197C1435.09 887.62 1432.46 889.643 1429.38 891.107C1426.29 892.57 1422.84 893.433 1419.28 893.626L1356.66 894.039C1353.1 893.904 1349.65 893.092 1346.57 891.67C1343.49 890.248 1340.87 888.255 1338.93 885.852L1307.7 842.072C1306.1 839.511 1305.28 836.676 1305.29 833.796C1305.3 830.915 1306.15 828.07 1307.76 825.491L1339.16 781.298C1341.12 778.875 1343.75 776.851 1346.83 775.387C1349.92 773.924 1353.37 773.061 1356.92 772.868Z" fill="#ECD3FF" fill-opacity="0.5"/>
<path d="M1356.92 638.075L1419.55 637.662C1423.1 637.793 1426.55 638.599 1429.62 640.016C1432.7 641.432 1435.31 643.418 1437.26 645.814L1468.49 689.594C1470.09 692.159 1470.92 694.999 1470.91 697.885C1470.9 700.772 1470.06 703.623 1468.45 706.21L1437.05 750.403C1435.09 752.826 1432.46 754.85 1429.38 756.313C1426.29 757.777 1422.84 758.639 1419.28 758.833L1356.66 759.245C1353.1 759.11 1349.65 758.299 1346.57 756.876C1343.49 755.454 1340.87 753.461 1338.93 751.059L1307.7 707.278C1306.1 704.718 1305.28 701.883 1305.29 699.002C1305.3 696.122 1306.15 693.277 1307.76 690.697L1339.16 646.504C1341.12 644.081 1343.75 642.057 1346.83 640.594C1349.92 639.13 1353.37 638.268 1356.92 638.075Z" fill="#ECD3FF" fill-opacity="0.5"/>
<g filter="url(#filter0_d_987_3472)">
<path d="M1440 0H0V459.993C81.7021 512.663 105.6 681.745 718.08 681.745C1330.56 681.745 1369.79 756.331 1440 809V0Z" fill="url(#paint0_linear_987_3472)"/>
</g>
</g>
<defs>
<filter id="filter0_d_987_3472" x="-4" y="0" width="1448" height="817" filterUnits="userSpaceOnUse" color-interpolation-filters="sRGB">
<feFlood flood-opacity="0" result="BackgroundImageFix"/>
<feColorMatrix in="SourceAlpha" type="matrix" values="0 0 0 0 0 0 0 0 0 0 0 0 0 0 0 0 0 0 127 0" result="hardAlpha"/>
<feOffset dy="4"/>
<feGaussianBlur stdDeviation="2"/>
<feComposite in2="hardAlpha" operator="out"/>
<feColorMatrix type="matrix" values="0 0 0 0 0.733333 0 0 0 0 0.541176 0 0 0 0 0.996078 0 0 0 0.5 0"/>
<feBlend mode="normal" in2="BackgroundImageFix" result="effect1_dropShadow_987_3472"/>
<feBlend mode="normal" in="SourceGraphic" in2="effect1_dropShadow_987_3472" result="shape"/>
</filter>
<linearGradient id="paint0_linear_987_3472" x1="720" y1="-6.49622e-09" x2="719.761" y2="648.421" gradientUnits="userSpaceOnUse">
<stop stop-color="#9242FD"/>
<stop offset="0.0001" stop-color="#7713FD"/>
<stop offset="0.993287" stop-color="#BB8AFE"/>
</linearGradient>
<clipPath id="clip0_987_3472">
<rect width="1440" height="809" fill="white"/>
</clipPath>
</defs>
</svg>
