<svg width="35" height="35" viewBox="0 0 35 35" fill="none" xmlns="http://www.w3.org/2000/svg">
<g clip-path="url(#clip0_543_4944)">
<path d="M26.2503 18.9554H18.9587V26.2471C18.9587 26.6339 18.805 27.0048 18.5315 27.2783C18.258 27.5518 17.8871 27.7054 17.5003 27.7054C17.1136 27.7054 16.7426 27.5518 16.4691 27.2783C16.1956 27.0048 16.042 26.6339 16.042 26.2471V18.9554H8.75033C8.36355 18.9554 7.99262 18.8018 7.71913 18.5283C7.44564 18.2548 7.29199 17.8839 7.29199 17.4971C7.29199 17.1103 7.44564 16.7394 7.71913 16.4659C7.99262 16.1924 8.36355 16.0388 8.75033 16.0388H16.042V8.74709C16.042 8.36032 16.1956 7.98938 16.4691 7.71589C16.7426 7.4424 17.1136 7.28876 17.5003 7.28876C17.8871 7.28876 18.258 7.4424 18.5315 7.71589C18.805 7.98938 18.9587 8.36032 18.9587 8.74709V16.0388H26.2503C26.6371 16.0388 27.008 16.1924 27.2815 16.4659C27.555 16.7394 27.7087 17.1103 27.7087 17.4971C27.7087 17.8839 27.555 18.2548 27.2815 18.5283C27.008 18.8018 26.6371 18.9554 26.2503 18.9554Z" fill="#FFFFFF"/>
<rect x="1.25" y="1.25" width="32.5" height="32.5" rx="8.75" stroke="#FFFFFF" stroke-width="2.5"/>
</g>
<defs>
<clipPath id="clip0_543_4944">
<rect width="35" height="35" fill="white"/>
</clipPath>
</defs>
</svg>
