<svg width="26" height="22" viewBox="0 0 26 22" fill="none" xmlns="http://www.w3.org/2000/svg">
<path d="M18.9957 1.76C19.6364 1.75946 20.2708 1.88684 20.8616 2.13466C21.4525 2.38248 21.9879 2.74576 22.4365 3.2032C23.3609 4.14162 23.879 5.40598 23.879 6.7232C23.879 8.04043 23.3609 9.30479 22.4365 10.2432L13.3197 19.4744L4.20289 10.2432C3.27853 9.30479 2.76039 8.04043 2.76039 6.7232C2.76039 5.40598 3.27853 4.14162 4.20289 3.2032C4.65178 2.74609 5.18724 2.383 5.77802 2.13514C6.36879 1.88728 7.00303 1.75962 7.64369 1.75962C8.28436 1.75962 8.9186 1.88728 9.50937 2.13514C10.1001 2.383 10.6356 2.74609 11.0845 3.2032L13.3197 5.4912L15.5461 3.2208C15.9933 2.75791 16.5294 2.38996 17.1221 2.13896C17.7148 1.88797 18.352 1.75908 18.9957 1.76ZM18.9957 2.36091e-06C18.1206 -0.000739233 17.2542 0.173235 16.4473 0.511724C15.6404 0.850213 14.9091 1.3464 14.2965 1.9712L13.3197 2.9568L12.3429 1.9712C11.7295 1.34753 10.9981 0.852202 10.1913 0.51409C9.38449 0.175977 8.51847 0.00184574 7.64369 0.00184574C6.76892 0.00184574 5.9029 0.175977 5.09611 0.51409C4.28931 0.852202 3.5579 1.34753 2.94449 1.9712C1.69655 3.24159 0.997314 4.9512 0.997314 6.732C0.997314 8.51281 1.69655 10.2224 2.94449 11.4928L13.3197 22L23.6949 11.4928C24.9428 10.2224 25.6421 8.51281 25.6421 6.732C25.6421 4.9512 24.9428 3.24159 23.6949 1.9712C23.0816 1.3472 22.3503 0.851528 21.5435 0.513096C20.7367 0.174664 19.8706 0.000242966 18.9957 2.36091e-06Z" fill="white"/>
</svg>
