<svg width="26" height="25" viewBox="0 0 26 25" fill="none" xmlns="http://www.w3.org/2000/svg">
<path d="M2.91059 0H22.355C23.0917 0 23.7983 0.292658 24.3192 0.813592C24.8402 1.33453 25.1328 2.04107 25.1328 2.77778V22.2222C25.1328 22.9589 24.8402 23.6655 24.3192 24.1864C23.7983 24.7073 23.0917 25 22.355 25H2.91059C2.17388 25 1.46734 24.7073 0.946405 24.1864C0.42547 23.6655 0.132813 22.9589 0.132812 22.2222V2.77778C0.132812 2.04107 0.42547 1.33453 0.946405 0.813592C1.46734 0.292658 2.17388 0 2.91059 0M20.9661 2.77778H17.4939C16.2047 2.77778 14.9682 3.28993 14.0566 4.20156C13.145 5.1132 12.6328 6.34964 12.6328 7.63889V11.1111H9.85503V15.2778H12.6328V25H16.7995V15.2778H20.9661V11.1111H16.7995V8.33333C16.7995 7.96498 16.9458 7.61171 17.2063 7.35124C17.4667 7.09077 17.82 6.94444 18.1884 6.94444H20.9661V2.77778Z" fill="white"/>
</svg>
