<svg width="314" height="200" viewBox="0 0 314 200" fill="none" xmlns="http://www.w3.org/2000/svg">
<g clip-path="url(#clip0_379_2713)">
<path opacity="0.1" d="M313.497 128.065C313.504 133.453 312.874 138.823 311.621 144.063C310.606 148.307 309.159 152.435 307.304 156.384C306.994 157.044 306.677 157.693 306.345 158.334C306.361 166.149 304.146 173.807 299.961 180.407C292.771 191.731 280.212 199.236 265.922 199.236H59.7343C50.234 199.246 40.9216 196.589 32.8557 191.57C26.2894 187.489 20.7156 181.996 16.5402 175.49C11.1108 167.038 8.23151 157.2 8.24689 147.155C7.37074 145.567 6.56031 143.924 5.81558 142.226C3.42186 136.765 1.78762 131.002 0.958433 125.098C0.500406 121.862 0.271673 118.599 0.273943 115.331C0.273943 97.0033 7.39265 80.6659 18.5225 70.0563C26.8048 62.1545 37.3076 57.4315 48.7304 57.4315C49.6778 57.4315 50.6169 57.4671 51.5505 57.5301C52.0653 56.4988 52.5992 55.4766 53.1522 54.4636C68.4027 26.5363 98.3286 6.15768 133.982 1.34708C139.372 0.61921 144.805 0.253328 150.243 0.251892C153.655 0.251892 157.026 0.391528 160.357 0.6708C182.77 2.52714 203.193 10.5056 219.514 22.7114C220.004 23.0756 220.491 23.4479 220.973 23.8203C227.938 19.1904 235.958 16.5483 244.495 16.5483C245.952 16.5484 247.408 16.6261 248.856 16.781C269.799 19.0124 286.914 37.1679 291.645 61.0456C292.519 65.4641 292.956 69.9577 292.951 74.4616C292.951 76.5042 292.86 78.522 292.677 80.5153C294.24 81.8147 295.722 83.2072 297.116 84.6852C307.17 95.2921 313.497 110.794 313.497 128.065Z" fill="#FFC650"/>
<path opacity="0.1" d="M32.5818 191.321C33.77 192.06 34.9912 192.75 36.2452 193.391L159.897 119.296L161.54 122.308L89.5314 198.971H107.739L167.829 131.89L170.019 133.807L155.396 198.971H175.931L190.288 142.842H195.491L215.853 198.971H235.566L220.943 133.807L223.133 131.89L280.63 196.071C284.82 194.375 288.694 191.986 292.091 189.004L229.441 122.308L231.084 119.296L305.653 163.979C305.931 162.023 306.071 160.05 306.071 158.074C306.403 157.433 306.72 156.784 307.03 156.124C308.885 152.175 310.332 148.047 311.348 143.803C311.578 142.85 311.78 141.887 311.969 140.909L231.084 110.261V102.868L310.816 109.735C308.103 99.8563 303.229 91.1468 296.853 84.4114L296.749 84.3046L231.084 97.3921V90.2734L291.046 59.266C288.412 47.4243 282.714 37.0748 275.031 29.5016L223.144 87.4341L220.954 85.5175L236.316 17.0685C230.738 18.1897 225.434 20.3994 220.71 23.5711C220.228 23.1988 219.741 22.8264 219.251 22.4622C218.172 21.6555 217.077 20.8678 215.965 20.0994L195.507 76.5014H190.305L171.202 1.85907C167.561 1.20926 163.855 0.725558 160.086 0.407954C157.038 0.156062 153.956 0.0200746 150.84 -3.8147e-06L170.028 85.5175L167.837 87.4341L99.5058 11.149C84.8276 18.0897 72.1618 27.9656 62.4803 39.8976L159.897 90.2761V97.3948L18.7961 69.2705C18.6127 69.4402 18.4292 69.61 18.2485 69.7825C7.12692 80.3921 0 96.7295 0 115.057C0 115.586 -8.36376e-08 116.114 0.0191657 116.637L159.897 102.868V110.261L11.7048 166.389C15.8238 176.716 23.1396 185.453 32.5818 191.323V191.321Z" fill="#FFC650"/>
<path opacity="0.1" d="M226.835 199.253H202.467L195.433 132.758L195.329 131.797V131.795L194.732 126.143L219.108 125.971L219.855 125.965L219.908 126.508L226.835 199.253Z" fill="#FFC650"/>
<path opacity="0.1" d="M195.816 132.367L195.433 132.758L129.949 199.253H96.5815L179.528 113.237L195.329 131.795L195.816 132.367Z" fill="#FFC650"/>
<path d="M295.462 187.2C291.712 191.197 287.182 194.383 282.152 196.56C277.122 198.738 271.699 199.861 266.218 199.86H60.0299C46.7807 199.866 34.0496 194.714 24.5322 185.497L24.8279 185.448C54.9154 180.643 102.143 177.546 155.243 177.546C214.029 177.546 265.615 181.341 294.72 187.052C294.969 187.099 295.215 187.148 295.462 187.2Z" fill="#E8EAF2"/>
<path opacity="0.3" d="M295.462 187.34C291.712 191.337 287.182 194.522 282.152 196.7C277.122 198.878 271.699 200.001 266.218 200H60.0299C46.7804 200.005 34.0491 194.852 24.5322 185.634L24.8279 185.585C54.9154 180.769 102.143 177.683 155.243 177.683C214.029 177.683 265.615 181.478 294.72 187.189C294.969 187.236 295.215 187.285 295.462 187.34Z" fill="#FFC650"/>
<path d="M192.479 153.197C216.522 153.197 236.013 133.707 236.013 109.664C236.013 85.6207 216.522 66.13 192.479 66.13C168.436 66.13 148.945 85.6207 148.945 109.664C148.945 133.707 168.436 153.197 192.479 153.197Z" fill="#F86D70"/>
<path d="M234.506 185.763L232.28 193.957C231.863 195.496 230.95 196.854 229.684 197.822C228.418 198.791 226.868 199.315 225.274 199.315H87.2807C85.6866 199.315 84.1368 198.791 82.8706 197.822C81.6044 196.854 80.692 195.496 80.2742 193.957L78.0482 185.763C76.1098 178.622 81.1805 171.331 88.573 170.999C88.7537 170.999 88.9344 170.986 89.1206 170.986H223.448C223.631 170.986 223.812 170.986 223.995 170.999C231.38 171.331 236.45 178.622 234.506 185.763Z" fill="#3F3D56"/>
<path opacity="0.1" d="M221.14 174.715C221.14 183.567 191.099 190.743 154.043 190.743C116.988 190.743 86.9468 183.567 86.9468 174.715C86.9468 173.428 87.5793 172.18 88.773 170.986H219.314C220.505 172.18 221.14 173.428 221.14 174.715Z" fill="black"/>
<path d="M239.405 138.226C239.405 131.688 233.395 126.387 225.989 126.387C218.583 126.387 212.573 131.688 212.573 138.226C205.164 138.226 199.157 143.53 199.157 150.068C199.157 156.606 205.167 161.909 212.573 161.909C214.904 161.918 217.203 161.374 219.284 160.321C221.366 161.365 223.662 161.909 225.992 161.909C228.321 161.909 230.617 161.365 232.7 160.321C234.78 161.374 237.079 161.918 239.41 161.909C246.822 161.909 252.826 156.606 252.826 150.068C252.826 143.53 246.827 138.226 239.405 138.226Z" fill="#FFC650"/>
<path opacity="0.1" d="M239.405 138.226C239.405 131.688 233.395 126.387 225.989 126.387C218.583 126.387 212.573 131.688 212.573 138.226C205.164 138.226 199.157 143.53 199.157 150.068C199.157 156.606 205.167 161.909 212.573 161.909C214.904 161.918 217.203 161.374 219.284 160.321C221.366 161.365 223.662 161.909 225.992 161.909C228.321 161.909 230.617 161.365 232.7 160.321C234.78 161.374 237.079 161.918 239.41 161.909C246.822 161.909 252.826 156.606 252.826 150.068C252.826 143.53 246.827 138.226 239.405 138.226Z" fill="black"/>
<path d="M207.694 78.3003C207.695 76.6577 207.395 75.0289 206.807 73.4952C209.796 72.4361 212.314 70.3547 213.917 67.6187C215.52 64.8827 216.105 61.6682 215.568 58.543C215.03 55.4178 213.406 52.5831 210.981 50.5395C208.556 48.496 205.487 47.3751 202.316 47.375C202.315 44.0822 201.106 40.9043 198.918 38.4437C196.73 35.9832 193.715 34.4111 190.445 34.0256C187.174 33.6401 183.876 34.4679 181.176 36.3521C178.476 38.2364 176.561 41.046 175.794 44.2482C175.671 44.2482 175.547 44.2482 175.424 44.2482C175.427 40.8983 174.179 37.668 171.925 35.19C169.671 32.712 166.573 31.1649 163.237 30.8518C159.902 30.5386 156.57 31.482 153.894 33.4971C151.218 35.5122 149.391 38.4538 148.77 41.7457C146.787 40.187 144.405 39.2177 141.897 38.9487C139.389 38.6797 136.855 39.1218 134.587 40.2245C132.318 41.3272 130.405 43.0459 129.067 45.1843C127.729 47.3227 127.019 49.7945 127.02 52.317C124.128 52.3211 121.314 53.2576 118.997 54.9876C116.679 56.7177 114.981 59.1489 114.155 61.9204C113.329 64.6919 113.419 67.6559 114.411 70.3724C115.403 73.0889 117.245 75.413 119.663 76.9997C119.49 77.8698 119.403 78.7548 119.403 79.6419C117.34 79.6409 115.304 80.1146 113.454 81.0264C111.603 81.9382 109.987 83.2635 108.731 84.8999C107.475 86.5363 106.612 88.4397 106.209 90.463C105.806 92.4863 105.874 94.5751 106.408 96.5678C106.942 98.5605 107.927 100.404 109.288 101.955C110.648 103.505 112.347 104.723 114.253 105.512C116.159 106.301 118.221 106.641 120.28 106.505C122.338 106.37 124.338 105.762 126.124 104.73C128.168 105.91 130.487 106.531 132.847 106.531C135.208 106.531 137.526 105.91 139.571 104.73C142.062 106.169 144.949 106.77 147.807 106.446C150.666 106.121 153.345 104.889 155.451 102.928C155.683 102.928 155.916 102.947 156.152 102.947C158.513 102.949 160.833 102.327 162.876 101.143C165.879 102.884 169.441 103.39 172.809 102.553C174.916 104.108 177.431 105.014 180.045 105.16C182.659 105.306 185.259 104.685 187.526 103.375C189.57 104.555 191.889 105.176 194.249 105.176C196.609 105.176 198.928 104.555 200.972 103.375C202.758 104.407 204.758 105.014 206.816 105.15C208.875 105.285 210.937 104.945 212.843 104.156C214.749 103.367 216.448 102.15 217.809 100.599C219.169 99.0484 220.154 97.2052 220.688 95.2125C221.222 93.2198 221.29 91.131 220.888 89.1077C220.485 87.0844 219.622 85.181 218.366 83.5446C217.109 81.9082 215.493 80.5829 213.643 79.6711C211.792 78.7593 209.757 78.2856 207.694 78.2866V78.3003ZM146.292 79.6446C146.291 79.0659 146.253 78.4879 146.177 77.9142C146.522 77.7527 146.862 77.5829 147.19 77.3913C147.727 77.7055 148.286 77.98 148.863 78.2127C148.2 78.6428 147.575 79.1292 146.996 79.6665C146.763 79.6501 146.528 79.6446 146.292 79.6446Z" fill="#FFC650"/>
<path d="M201.569 115.35C201.521 112.169 200.224 109.134 197.957 106.901C195.69 104.669 192.636 103.417 189.455 103.417C186.273 103.417 183.219 104.669 180.952 106.901C178.686 109.134 177.388 112.169 177.341 115.35C175.482 115.349 173.647 115.776 171.98 116.598C170.312 117.419 168.856 118.613 167.724 120.088C166.592 121.562 165.814 123.277 165.451 125.1C165.088 126.924 165.15 128.806 165.631 130.601C166.112 132.397 167 134.058 168.226 135.455C169.452 136.853 170.983 137.949 172.7 138.66C174.418 139.371 176.276 139.677 178.131 139.555C179.986 139.433 181.788 138.885 183.397 137.955C185.238 139.02 187.328 139.581 189.455 139.581C191.582 139.581 193.671 139.02 195.512 137.955C197.122 138.883 198.923 139.429 200.776 139.55C202.63 139.671 204.487 139.364 206.203 138.653C207.919 137.942 209.448 136.846 210.673 135.449C211.898 134.052 212.785 132.392 213.266 130.598C213.746 128.804 213.808 126.923 213.446 125.101C213.083 123.279 212.307 121.565 211.176 120.091C210.045 118.617 208.591 117.423 206.925 116.601C205.259 115.779 203.427 115.351 201.569 115.35Z" fill="#FFC650"/>
<path opacity="0.1" d="M201.569 115.35C201.521 112.169 200.224 109.134 197.957 106.901C195.69 104.669 192.636 103.417 189.455 103.417C186.273 103.417 183.219 104.669 180.952 106.901C178.686 109.134 177.388 112.169 177.341 115.35C175.482 115.349 173.647 115.776 171.98 116.598C170.312 117.419 168.856 118.613 167.724 120.088C166.592 121.562 165.814 123.277 165.451 125.1C165.088 126.924 165.15 128.806 165.631 130.601C166.112 132.397 167 134.058 168.226 135.455C169.452 136.853 170.983 137.949 172.7 138.66C174.418 139.371 176.276 139.677 178.131 139.555C179.986 139.433 181.788 138.885 183.397 137.955C185.238 139.02 187.328 139.581 189.455 139.581C191.582 139.581 193.671 139.02 195.512 137.955C197.122 138.883 198.923 139.429 200.776 139.55C202.63 139.671 204.487 139.364 206.203 138.653C207.919 137.942 209.448 136.846 210.673 135.449C211.898 134.052 212.785 132.392 213.266 130.598C213.746 128.804 213.808 126.923 213.446 125.101C213.083 123.279 212.307 121.565 211.176 120.091C210.045 118.617 208.591 117.423 206.925 116.601C205.259 115.779 203.427 115.351 201.569 115.35Z" fill="black"/>
<path opacity="0.1" d="M207.694 78.3003C207.695 76.6577 207.395 75.0289 206.807 73.4952C209.796 72.4361 212.314 70.3547 213.917 67.6187C215.52 64.8827 216.105 61.6682 215.568 58.543C215.03 55.4178 213.406 52.5831 210.981 50.5395C208.556 48.496 205.487 47.3751 202.316 47.375C202.315 44.0822 201.106 40.9043 198.918 38.4437C196.73 35.9832 193.715 34.4111 190.445 34.0256C187.174 33.6401 183.876 34.4679 181.176 36.3521C178.476 38.2364 176.561 41.046 175.794 44.2482C175.671 44.2482 175.547 44.2482 175.424 44.2482C175.427 40.8983 174.179 37.668 171.925 35.19C169.671 32.712 166.573 31.1649 163.237 30.8518C159.902 30.5386 156.57 31.482 153.894 33.4971C151.218 35.5122 149.391 38.4538 148.77 41.7457C146.787 40.187 144.405 39.2177 141.897 38.9487C139.389 38.6797 136.855 39.1218 134.587 40.2245C132.318 41.3272 130.405 43.0459 129.067 45.1843C127.729 47.3227 127.019 49.7945 127.02 52.317C124.128 52.3211 121.314 53.2576 118.997 54.9876C116.679 56.7177 114.981 59.1489 114.155 61.9204C113.329 64.6919 113.419 67.6559 114.411 70.3724C115.403 73.0889 117.245 75.413 119.663 76.9997C119.49 77.8698 119.403 78.7548 119.403 79.6419C117.34 79.6409 115.304 80.1146 113.454 81.0264C111.603 81.9382 109.987 83.2635 108.731 84.8999C107.475 86.5363 106.612 88.4397 106.209 90.463C105.806 92.4863 105.874 94.5751 106.408 96.5678C106.942 98.5605 107.927 100.404 109.288 101.955C110.648 103.505 112.347 104.723 114.253 105.512C116.159 106.301 118.221 106.641 120.28 106.505C122.338 106.37 124.338 105.762 126.124 104.73C128.168 105.91 130.487 106.531 132.847 106.531C135.208 106.531 137.526 105.91 139.571 104.73C142.062 106.169 144.949 106.77 147.807 106.446C150.666 106.121 153.345 104.889 155.451 102.928C155.683 102.928 155.916 102.947 156.152 102.947C158.513 102.949 160.833 102.327 162.876 101.143C165.879 102.884 169.441 103.39 172.809 102.553C174.916 104.108 177.431 105.014 180.045 105.16C182.659 105.306 185.259 104.685 187.526 103.375C189.57 104.555 191.889 105.176 194.249 105.176C196.609 105.176 198.928 104.555 200.972 103.375C202.758 104.407 204.758 105.014 206.816 105.15C208.875 105.285 210.937 104.945 212.843 104.156C214.749 103.367 216.448 102.15 217.809 100.599C219.169 99.0484 220.154 97.2052 220.688 95.2125C221.222 93.2198 221.29 91.131 220.888 89.1077C220.485 87.0844 219.622 85.181 218.366 83.5446C217.109 81.9082 215.493 80.5829 213.643 79.6711C211.792 78.7593 209.757 78.2856 207.694 78.2866V78.3003ZM146.292 79.6446C146.291 79.0659 146.253 78.4879 146.177 77.9142C146.522 77.7527 146.862 77.5829 147.19 77.3913C147.727 77.7055 148.286 77.98 148.863 78.2127C148.2 78.6428 147.575 79.1292 146.996 79.6665C146.763 79.6501 146.528 79.6446 146.292 79.6446Z" fill="black"/>
<path d="M197.486 144.408C196.441 143.992 195.381 143.571 194.264 143.428C194.152 143.428 194.039 143.406 193.924 143.398C193.924 143.283 193.924 143.171 193.938 143.059C193.998 141.69 194.423 140.277 195.381 139.288C196.339 138.3 197.673 137.813 198.297 136.646C196.015 135.978 193.652 135.623 191.274 135.592C190.669 135.592 190.025 135.592 189.519 135.937C188.897 136.34 188.629 137.101 188.424 137.818C187.794 140.195 187.37 142.522 186.65 144.841L186.461 144.885C183.914 145.432 180.711 145.008 179.542 142.716C179.834 141.561 180.2 140.425 180.637 139.316C182.006 135.907 184.103 132.843 186.176 129.807C187.518 127.837 188.861 125.87 190.206 123.904C188.192 123.297 186.147 122.8 184.079 122.417C183.641 122.335 183.145 122.269 182.781 122.527C182.534 122.738 182.352 123.015 182.258 123.326C180.281 128.178 177.858 133.487 177.171 138.82C176.786 138.611 176.39 138.423 175.985 138.256L169.617 135.54C169.28 135.427 168.975 135.233 168.73 134.976C168.149 134.256 168.73 133.112 169.578 132.728C170.427 132.345 171.388 132.454 172.316 132.372C173.245 132.29 174.269 131.953 174.613 131.094C175.013 130.105 174.249 128.988 173.316 128.471C172.382 127.953 171.284 127.808 170.304 127.376C169.55 127.023 168.889 126.5 168.373 125.847C167.857 125.195 167.5 124.431 167.331 123.616L165.811 123.545C167.815 121.629 169.893 119.791 172.281 118.381C173.433 117.7 174.655 117.122 175.728 116.32C177.141 115.236 178.248 113.803 178.939 112.161C179.631 110.52 179.883 108.727 179.671 106.959C179.534 105.929 179.241 104.864 179.566 103.878C179.84 103.076 180.459 102.46 181.07 101.877L186.57 96.6145C183.069 95.8171 179.481 95.4639 175.892 95.5631C174.983 95.5905 174.044 95.6507 173.231 96.0614C171.747 96.8116 171.04 98.5092 170.46 100.067C170.018 101.164 169.66 102.294 169.389 103.446C168.984 105.39 169.044 107.52 167.947 109.171C167.076 110.48 165.627 111.252 164.327 112.133C160.621 114.658 157.855 118.338 156.461 122.601C156.373 122.874 156.225 123.225 156.056 123.616C152.833 123.89 149.676 124.503 146.694 125.757C142.946 127.334 139.674 129.84 136.463 132.328C132.925 135.066 129.204 138.13 127.961 142.434C126.579 147.212 128.712 152.453 132.126 156.069C134.919 159.024 138.461 161.104 142.034 162.975C144.37 164.196 144.759 163.946 146.809 162.304L152.324 157.885C153.898 156.625 155.5 155.333 156.57 153.624C158.046 151.272 158.41 148.285 160.198 146.158C162.646 143.242 167.637 142.998 170.361 145.657C171.144 146.424 171.826 147.426 172.894 147.68C173.414 147.806 173.989 147.735 174.466 147.954C175.375 148.387 175.512 149.597 175.835 150.539C176.724 153.077 179.747 154.405 182.406 154.024C185.064 153.644 187.356 151.916 189.155 149.917C189.645 149.37 190.13 148.789 190.798 148.463C191.332 148.226 191.91 148.103 192.495 148.102C194.437 148.022 196.365 148.45 198.092 149.342C199.699 150.164 201.103 151.382 202.793 152.023C206.136 153.288 209.873 152.086 213.148 150.654L197.486 144.408Z" fill="#3F3D56"/>
<path opacity="0.1" d="M197.486 144.408C196.441 143.992 195.381 143.571 194.264 143.428C194.152 143.428 194.039 143.406 193.924 143.398C193.924 143.283 193.924 143.171 193.938 143.059C193.998 141.69 194.423 140.277 195.381 139.288C196.339 138.3 197.673 137.813 198.297 136.646C196.015 135.978 193.652 135.623 191.274 135.592C190.669 135.592 190.025 135.592 189.519 135.937C188.897 136.34 188.629 137.101 188.424 137.818C187.794 140.195 187.37 142.522 186.65 144.841L186.461 144.885C183.914 145.432 180.711 145.008 179.542 142.716C179.834 141.561 180.2 140.425 180.637 139.316C182.006 135.907 184.103 132.843 186.176 129.807C187.518 127.837 188.861 125.87 190.206 123.904C188.192 123.297 186.147 122.8 184.079 122.417C183.641 122.335 183.145 122.269 182.781 122.527C182.534 122.738 182.352 123.015 182.258 123.326C180.281 128.178 177.858 133.487 177.171 138.82C176.786 138.611 176.39 138.423 175.985 138.256L169.617 135.54C169.28 135.427 168.975 135.233 168.73 134.976C168.149 134.256 168.73 133.112 169.578 132.728C170.427 132.345 171.388 132.454 172.316 132.372C173.245 132.29 174.269 131.953 174.613 131.094C175.013 130.105 174.249 128.988 173.316 128.471C172.382 127.953 171.284 127.808 170.304 127.376C169.55 127.023 168.889 126.5 168.373 125.847C167.857 125.195 167.5 124.431 167.331 123.616L165.811 123.545C167.815 121.629 169.893 119.791 172.281 118.381C173.433 117.7 174.655 117.122 175.728 116.32C177.141 115.236 178.248 113.803 178.939 112.161C179.631 110.52 179.883 108.727 179.671 106.959C179.534 105.929 179.241 104.864 179.566 103.878C179.84 103.076 180.459 102.46 181.07 101.877L186.57 96.6145C183.069 95.8171 179.481 95.4639 175.892 95.5631C174.983 95.5905 174.044 95.6507 173.231 96.0614C171.747 96.8116 171.04 98.5092 170.46 100.067C170.018 101.164 169.66 102.294 169.389 103.446C168.984 105.39 169.044 107.52 167.947 109.171C167.076 110.48 165.627 111.252 164.327 112.133C160.621 114.658 157.855 118.338 156.461 122.601C156.373 122.874 156.225 123.225 156.056 123.616C152.833 123.89 149.676 124.503 146.694 125.757C142.946 127.334 139.674 129.84 136.463 132.328C132.925 135.066 129.204 138.13 127.961 142.434C126.579 147.212 128.712 152.453 132.126 156.069C134.919 159.024 138.461 161.104 142.034 162.975C144.37 164.196 144.759 163.946 146.809 162.304L152.324 157.885C153.898 156.625 155.5 155.333 156.57 153.624C158.046 151.272 158.41 148.285 160.198 146.158C162.646 143.242 167.637 142.998 170.361 145.657C171.144 146.424 171.826 147.426 172.894 147.68C173.414 147.806 173.989 147.735 174.466 147.954C175.375 148.387 175.512 149.597 175.835 150.539C176.724 153.077 179.747 154.405 182.406 154.024C185.064 153.644 187.356 151.916 189.155 149.917C189.645 149.37 190.13 148.789 190.798 148.463C191.332 148.226 191.91 148.103 192.495 148.102C194.437 148.022 196.365 148.45 198.092 149.342C199.699 150.164 201.103 151.382 202.793 152.023C206.136 153.288 209.873 152.086 213.148 150.654L197.486 144.408Z" fill="black"/>
<path d="M152.737 110.844C152.737 104.111 145.646 98.657 136.896 98.657C128.145 98.657 121.054 104.106 121.054 110.844C112.292 110.844 105.212 116.298 105.212 123.03C105.212 129.763 112.303 135.214 121.054 135.214C123.78 135.226 126.478 134.666 128.975 133.572C131.476 134.65 134.172 135.206 136.896 135.206C139.62 135.206 142.315 134.65 144.817 133.572C147.313 134.666 150.011 135.226 152.737 135.214C161.499 135.214 168.579 129.76 168.579 123.03C168.579 116.3 161.488 110.844 152.737 110.844Z" fill="#FFC650"/>
<path opacity="0.1" d="M152.737 110.844C152.737 104.111 145.646 98.657 136.896 98.657C128.145 98.657 121.054 104.106 121.054 110.844C112.292 110.844 105.212 116.298 105.212 123.03C105.212 129.763 112.303 135.214 121.054 135.214C123.78 135.226 126.478 134.666 128.975 133.572C131.476 134.65 134.172 135.206 136.896 135.206C139.62 135.206 142.315 134.65 144.817 133.572C147.313 134.666 150.011 135.226 152.737 135.214C161.499 135.214 168.579 129.76 168.579 123.03C168.579 116.3 161.488 110.844 152.737 110.844Z" fill="black"/>
<path d="M186.713 179.673L177.631 175.493C176.903 175.156 176.095 174.737 175.868 173.965C175.787 173.547 175.787 173.118 175.868 172.7C176.086 170.527 175.614 168.341 174.518 166.452C173.836 165.283 172.913 164.231 172.506 162.939C171.635 160.201 173.327 157.301 173.409 154.416C173.499 151.607 172.04 148.904 169.962 147.001C169.346 146.435 168.67 145.906 168.185 145.235C166.778 143.258 167.364 140.581 168.032 138.218L168.204 138.059C168.333 137.933 168.237 137.394 168.002 136.594C170.627 135.894 173.102 134.719 175.304 133.128C176.002 132.621 176.673 132.066 177.494 131.743C178.622 131.291 179.901 131.343 181.04 130.921C183.164 130.13 184.344 127.909 185.333 125.872C187.674 121.056 190.056 116.079 190.352 110.731C188.43 109.245 186.093 108.391 183.665 108.289C183.26 108.273 182.8 108.289 182.535 108.607C182.385 108.808 182.291 109.045 182.261 109.294C181.431 113.11 180 116.77 178.02 120.136C177.228 121.55 176.257 122.856 175.131 124.022C173.762 125.391 172.081 126.412 170.427 127.428C169.037 128.279 167.175 129.109 165.595 130.086C164.5 127.272 163.5 124.703 163.629 124.309C165.004 120.015 165.058 115.407 163.782 111.082C163.465 110.009 163.06 108.949 162.961 107.832C162.862 106.715 163.084 105.614 163.172 104.503C163.344 102.299 163.008 100.089 163.021 97.8767C163.038 94.8814 163.695 91.9299 164.349 89.0057C162.529 88.6804 160.676 88.5811 158.832 88.71C158.469 88.7113 158.111 88.8056 157.794 88.9838C157.334 89.2823 157.162 89.8572 157.006 90.3829C155.788 94.4652 153.578 98.1916 152.266 102.247C150.955 106.301 150.673 111.052 153.113 114.545C153.98 115.786 155.193 116.908 155.385 118.409C155.486 119.203 155.278 119.999 155.07 120.774C154.701 122.162 160.647 137.079 160.979 138.456C160.979 138.494 161.001 138.527 161.009 138.563C160.823 138.604 160.634 138.64 160.445 138.683C160.194 142.562 158.693 146.256 156.168 149.211C155.833 148.257 155.595 147.272 155.459 146.27C155.254 144.764 155.273 143.212 154.805 141.766C154.104 139.609 152.412 137.955 150.933 136.238C148.271 133.14 146.169 129.602 144.721 125.782C143.605 126.196 142.461 126.532 141.298 126.787C140.682 126.924 138.56 126.927 138.226 127.477C137.711 128.298 140.011 132.118 140.466 132.997C142.068 136.088 144.767 138.503 146.353 141.602C147.014 142.978 147.56 144.405 147.987 145.87C148.852 148.608 149.717 151.346 150.38 154.128C149.586 154.95 148.959 155.952 148.277 156.885C145.86 160.175 142.66 162.809 138.968 164.552C138.527 164.76 138.04 164.992 137.851 165.441C137.819 165.518 137.795 165.598 137.78 165.68C136.274 164.617 134.867 163.432 133.887 161.888C133.454 161.203 133.112 160.461 132.641 159.804C131.055 157.594 128.282 156.661 126.012 155.149C125.054 154.514 124.161 153.761 123.102 153.315C121.938 152.822 120.651 152.729 119.392 152.644C118.36 152.573 114.4 151.749 113.891 152.672C113.168 153.978 115.46 155.886 116.377 156.346C117.902 157.11 119.646 157.304 121.24 157.909C122.68 158.501 124.018 159.318 125.202 160.33C125.719 160.711 126.172 161.173 126.543 161.699C126.938 162.315 127.121 163.04 127.452 163.692C128.515 165.781 130.812 166.737 132.868 167.966C132.322 167.99 131.785 168.111 131.283 168.325C129.752 169.02 129.04 170.742 128.044 172.097C127.154 173.299 125.982 174.26 125.002 175.383C124.022 176.506 123.206 177.91 123.28 179.402C123.326 180.347 123.707 181.379 123.206 182.181C124.358 182.68 125.777 183.277 127.025 183.427C128.274 183.578 129.626 183.34 130.56 182.499C130.849 182.19 131.159 181.902 131.488 181.637C132.279 181.108 133.364 181.256 134.21 181.689C135.056 182.121 135.754 182.797 136.529 183.353C137.635 184.137 138.896 184.675 140.227 184.932C141.558 185.189 142.928 185.16 144.247 184.845C144.795 184.714 145.58 184.602 145.411 184.076C144.252 183.535 143.265 182.684 142.56 181.617C141.855 180.55 141.459 179.309 141.416 178.031C142.278 177.866 143.169 177.939 143.993 178.242C144.816 178.545 145.542 179.066 146.092 179.75C145.331 179.783 144.827 180.807 145.271 181.431C146.721 181.402 148.143 181.026 149.418 180.335C150.693 179.643 151.783 178.656 152.598 177.456C153.196 177.211 153.845 177.121 154.487 177.194C155.129 177.268 155.742 177.502 156.269 177.876C156.796 178.249 157.22 178.75 157.501 179.332C157.783 179.913 157.913 180.556 157.879 181.201L161.838 183.156C162.46 183.463 163.12 183.778 163.812 183.731C164.505 183.685 165.212 183.126 165.16 182.436C165.099 181.645 164.149 180.837 164.669 180.246C165.6 180.662 166.312 181.483 167.268 181.842C168.223 182.201 169.631 181.721 169.579 180.703C169.536 180.364 169.405 180.041 169.198 179.769C168.128 178.138 166.704 176.768 165.034 175.761C164.91 174.866 166.95 173.883 167.569 174.551L172.585 180.079C172.975 180.554 173.437 180.966 173.954 181.3C175.747 182.337 177.987 181.3 180.057 181.3C182.296 181.3 184.588 182.576 186.672 181.762C187.219 181.552 187.767 181.034 187.611 180.47C187.488 180.065 187.08 179.854 186.713 179.673Z" fill="#3F3D56"/>
<path d="M200.266 76.6767C200.267 75.311 200.016 73.9568 199.526 72.682C202.012 71.8005 204.106 70.0691 205.438 67.7936C206.771 65.5182 207.257 62.845 206.81 60.246C206.364 57.6471 205.013 55.2896 202.997 53.5898C200.981 51.89 198.429 50.9572 195.792 50.9562C195.789 48.2187 194.782 45.5772 192.962 43.5321C191.142 41.4871 188.636 40.1806 185.917 39.86C183.198 39.5394 180.456 40.2271 178.211 41.7928C175.965 43.3584 174.371 45.6933 173.732 48.3552C173.631 48.3552 173.529 48.3552 173.425 48.3552C173.438 45.5619 172.404 42.8651 170.528 40.7956C168.652 38.7261 166.069 37.4337 163.288 37.1728C160.507 36.9118 157.729 37.7013 155.501 39.3857C153.272 41.0701 151.755 43.5275 151.248 46.2743C149.599 44.9781 147.618 44.172 145.532 43.9483C143.446 43.7247 141.34 44.0924 139.453 45.0094C137.566 45.9265 135.976 47.3559 134.863 49.1343C133.75 50.9126 133.16 52.9682 133.161 55.0659C130.754 55.0673 128.412 55.8453 126.482 57.2843C124.553 58.7232 123.139 60.7464 122.451 63.053C121.764 65.3597 121.839 67.8266 122.665 70.0873C123.492 72.3479 125.026 74.2815 127.039 75.6007C126.896 76.3221 126.824 77.0556 126.822 77.791C125.106 77.7896 123.412 78.1831 121.873 78.9413C120.333 79.6994 118.988 80.8018 117.943 82.1631C116.897 83.5243 116.179 85.1079 115.844 86.7912C115.509 88.4745 115.565 90.2124 116.01 91.8703C116.454 93.5282 117.274 95.0616 118.406 96.3518C119.537 97.642 120.951 98.6544 122.537 99.3106C124.123 99.9667 125.839 100.249 127.551 100.136C129.264 100.022 130.928 99.5165 132.413 98.657C134.113 99.64 136.042 100.158 138.006 100.158C139.969 100.158 141.898 99.64 143.598 98.657C145.669 99.8548 148.07 100.356 150.448 100.086C152.825 99.8165 155.053 98.7906 156.803 97.1594C156.998 97.1594 157.192 97.1731 157.389 97.1731C159.352 97.1749 161.281 96.6582 162.98 95.6754C165.483 97.1256 168.451 97.5477 171.26 96.8527C173.011 98.1476 175.102 98.9027 177.276 99.0253C179.45 99.1478 181.613 98.6325 183.498 97.5427C185.198 98.5254 187.126 99.0429 189.089 99.0429C191.052 99.0429 192.981 98.5254 194.68 97.5427C196.165 98.4001 197.828 98.9043 199.539 99.0164C201.251 99.1286 202.965 98.8455 204.549 98.1893C206.134 97.533 207.546 96.5211 208.677 95.2318C209.808 93.9425 210.627 92.4103 211.071 90.7539C211.515 89.0974 211.572 87.3609 211.238 85.6789C210.903 83.9968 210.187 82.4141 209.143 81.0533C208.099 79.6925 206.757 78.59 205.219 77.8311C203.681 77.0722 201.989 76.6772 200.274 76.6767H200.266ZM149.197 77.7965C149.196 77.3158 149.164 76.8357 149.101 76.3591C149.375 76.2222 149.671 76.0853 149.942 75.9237C150.391 76.1812 150.856 76.408 151.335 76.6027C150.783 76.959 150.262 77.363 149.78 77.8102C149.589 77.802 149.392 77.7965 149.197 77.7965Z" fill="#FFC650"/>
<path d="M238.285 138.555C238.285 132.381 232.612 127.373 225.611 127.373C218.61 127.373 212.94 132.381 212.94 138.555C205.939 138.555 200.266 143.562 200.266 149.739C200.266 155.916 205.939 160.921 212.94 160.921C215.141 160.927 217.313 160.41 219.275 159.412C221.242 160.399 223.412 160.913 225.612 160.913C227.813 160.913 229.983 160.399 231.949 159.412C233.913 160.407 236.084 160.921 238.285 160.913C245.286 160.913 250.959 155.908 250.959 149.731C250.959 143.554 245.286 138.555 238.285 138.555Z" fill="#FFC650"/>
<path d="M200.265 115.819C200.289 114.335 200.017 112.862 199.465 111.485C198.913 110.108 198.093 108.854 197.053 107.797C196.012 106.74 194.771 105.9 193.403 105.327C192.034 104.754 190.566 104.459 189.082 104.459C187.599 104.459 186.13 104.754 184.762 105.327C183.393 105.9 182.153 106.74 181.112 107.797C180.071 108.854 179.251 110.108 178.7 111.485C178.148 112.862 177.876 114.335 177.899 115.819C176.184 115.819 174.493 116.215 172.955 116.974C171.418 117.732 170.075 118.835 169.032 120.195C167.988 121.556 167.272 123.138 166.937 124.82C166.603 126.502 166.66 128.238 167.104 129.894C167.547 131.55 168.366 133.082 169.496 134.372C170.627 135.661 172.038 136.673 173.622 137.33C175.206 137.986 176.92 138.27 178.631 138.159C180.342 138.047 182.005 137.544 183.49 136.687C185.19 137.668 187.118 138.185 189.081 138.185C191.044 138.185 192.972 137.668 194.672 136.687C196.157 137.545 197.82 138.049 199.531 138.161C201.242 138.273 202.956 137.99 204.541 137.334C206.125 136.678 207.538 135.666 208.668 134.376C209.799 133.087 210.618 131.555 211.062 129.899C211.507 128.242 211.564 126.506 211.229 124.824C210.895 123.141 210.178 121.559 209.135 120.198C208.091 118.837 206.748 117.735 205.21 116.976C203.672 116.217 201.98 115.822 200.265 115.821V115.819Z" fill="#FFC650"/>
<path d="M151.434 111.345C151.434 105.168 144.923 100.163 136.895 100.163C128.868 100.163 122.357 105.168 122.357 111.345C114.329 111.345 107.821 116.353 107.821 122.527C107.821 128.701 114.329 133.711 122.357 133.711C124.858 133.725 127.334 133.214 129.626 132.211C131.922 133.201 134.395 133.711 136.895 133.711C139.395 133.711 141.869 133.201 144.165 132.211C146.456 133.214 148.932 133.725 151.434 133.711C159.462 133.711 165.97 128.703 165.97 122.527C165.97 116.35 159.462 111.345 151.434 111.345Z" fill="#FFC650"/>
<path d="M124.221 144.148C124.245 142.567 123.954 140.996 123.366 139.528C122.777 138.06 121.902 136.723 120.792 135.596C119.682 134.47 118.359 133.575 116.9 132.964C115.441 132.353 113.875 132.038 112.293 132.038C110.712 132.038 109.146 132.353 107.686 132.964C106.227 133.575 104.904 134.47 103.794 135.596C102.684 136.723 101.81 138.06 101.221 139.528C100.632 140.996 100.341 142.567 100.365 144.148C98.535 144.147 96.7289 144.567 95.0868 145.376C93.4448 146.185 92.0109 147.361 90.8962 148.812C89.7814 150.264 89.0157 151.953 88.6583 153.748C88.3009 155.544 88.3614 157.397 88.8351 159.165C89.3088 160.933 90.1831 162.568 91.3901 163.944C92.5972 165.32 94.1047 166.4 95.796 167.1C97.4873 167.8 99.3169 168.102 101.143 167.981C102.97 167.861 104.744 167.321 106.329 166.405C108.142 167.453 110.199 168.004 112.293 168.004C114.387 168.004 116.445 167.453 118.258 166.405C119.842 167.319 121.616 167.857 123.441 167.976C125.266 168.095 127.094 167.793 128.784 167.093C130.474 166.393 131.98 165.313 133.186 163.938C134.392 162.563 135.265 160.928 135.739 159.161C136.212 157.395 136.273 155.543 135.916 153.749C135.559 151.955 134.795 150.267 133.681 148.815C132.568 147.364 131.136 146.188 129.495 145.379C127.855 144.57 126.05 144.149 124.221 144.148Z" fill="#FFC650"/>
<path opacity="0.1" d="M124.221 144.148C124.245 142.567 123.954 140.996 123.366 139.528C122.777 138.06 121.902 136.723 120.792 135.596C119.682 134.47 118.359 133.575 116.9 132.964C115.441 132.353 113.875 132.038 112.293 132.038C110.712 132.038 109.146 132.353 107.686 132.964C106.227 133.575 104.904 134.47 103.794 135.596C102.684 136.723 101.81 138.06 101.221 139.528C100.632 140.996 100.341 142.567 100.365 144.148C98.535 144.147 96.7289 144.567 95.0868 145.376C93.4448 146.185 92.0109 147.361 90.8962 148.812C89.7814 150.264 89.0157 151.953 88.6583 153.748C88.3009 155.544 88.3614 157.397 88.8351 159.165C89.3088 160.933 90.1831 162.568 91.3901 163.944C92.5972 165.32 94.1047 166.4 95.796 167.1C97.4873 167.8 99.3169 168.102 101.143 167.981C102.97 167.861 104.744 167.321 106.329 166.405C108.142 167.453 110.199 168.004 112.293 168.004C114.387 168.004 116.445 167.453 118.258 166.405C119.842 167.319 121.616 167.857 123.441 167.976C125.266 168.095 127.094 167.793 128.784 167.093C130.474 166.393 131.98 165.313 133.186 163.938C134.392 162.563 135.265 160.928 135.739 159.161C136.212 157.395 136.273 155.543 135.916 153.749C135.559 151.955 134.795 150.267 133.681 148.815C132.568 147.364 131.136 146.188 129.495 145.379C127.855 144.57 126.05 144.149 124.221 144.148Z" fill="black"/>
<path d="M123.477 144.521C123.5 143.037 123.228 141.564 122.676 140.187C122.125 138.81 121.305 137.556 120.264 136.499C119.223 135.442 117.982 134.602 116.614 134.029C115.246 133.456 113.777 133.161 112.294 133.161C110.81 133.161 109.341 133.456 107.973 134.029C106.605 134.602 105.364 135.442 104.323 136.499C103.282 137.556 102.462 138.81 101.911 140.187C101.359 141.564 101.087 143.037 101.11 144.521C99.3952 144.521 97.7031 144.915 96.165 145.674C94.6268 146.433 93.2837 147.535 92.2397 148.896C91.1956 150.256 90.4786 151.839 90.144 153.521C89.8095 155.203 89.8663 156.94 90.3102 158.597C90.7541 160.253 91.5731 161.786 92.7039 163.075C93.8347 164.365 95.247 165.377 96.8315 166.033C98.416 166.689 100.13 166.973 101.842 166.86C103.553 166.748 105.216 166.244 106.701 165.387C108.402 166.368 110.33 166.884 112.294 166.884C114.257 166.884 116.185 166.368 117.886 165.387C119.371 166.244 121.034 166.748 122.745 166.86C124.457 166.973 126.171 166.689 127.756 166.033C129.34 165.377 130.752 164.365 131.883 163.075C133.014 161.786 133.833 160.253 134.277 158.597C134.721 156.94 134.778 155.203 134.443 153.521C134.108 151.839 133.391 150.256 132.347 148.896C131.303 147.535 129.96 146.433 128.422 145.674C126.884 144.915 125.192 144.521 123.477 144.521Z" fill="#FFC650"/>
<path opacity="0.1" d="M158.514 53.5655C161.121 53.5654 163.641 54.5074 165.608 56.2181C167.575 57.9288 168.858 60.2928 169.22 62.8746C169.433 61.4019 169.341 59.901 168.948 58.4659C168.554 57.0307 167.869 55.6922 166.935 54.5341C166 53.3761 164.837 52.4235 163.517 51.7359C162.197 51.0484 160.75 50.6407 159.265 50.5385C157.781 50.4362 156.291 50.6416 154.889 51.1417C153.488 51.6419 152.205 52.426 151.12 53.445C150.036 54.464 149.174 55.6959 148.587 57.0636C148.001 58.4313 147.703 59.9053 147.713 61.3933C147.714 61.8925 147.749 62.391 147.817 62.8855C148.177 60.3034 149.458 57.9382 151.423 56.2256C153.389 54.513 155.907 53.5683 158.514 53.5655Z" fill="black"/>
<path opacity="0.1" d="M180.711 72.8654C183.082 73.9541 184.979 75.8632 186.053 78.2407C187.127 80.6183 187.305 83.3039 186.554 85.8023C187.351 84.5531 187.884 83.1533 188.117 81.6898C188.351 80.2262 188.281 78.7303 187.912 77.2949C187.543 75.8595 186.883 74.5152 185.973 73.3457C185.062 72.1762 183.921 71.2064 182.62 70.4965C181.319 69.7867 179.886 69.3519 178.41 69.2193C176.934 69.0867 175.446 69.2591 174.04 69.7257C172.633 70.1923 171.337 70.9432 170.233 71.9317C169.129 72.9202 168.24 74.1253 167.621 75.472C167.414 75.9258 167.238 76.3933 167.095 76.8711C168.5 74.6729 170.651 73.0567 173.154 72.3206C175.656 71.5844 178.34 71.7779 180.711 72.8654Z" fill="black"/>
<path opacity="0.1" d="M149.027 81.0656C151.398 82.1543 153.295 84.0634 154.369 86.4409C155.443 88.8185 155.621 91.5041 154.87 94.0025C155.138 93.5818 155.378 93.1437 155.587 92.691C156.767 90.088 156.868 87.1236 155.868 84.4463C154.869 81.7689 152.849 79.5965 150.252 78.4043C147.654 77.212 144.69 77.0969 142.008 78.0841C139.326 79.0713 137.144 81.0804 135.94 83.6721C135.733 84.126 135.557 84.5935 135.414 85.0712C136.818 82.8738 138.97 81.258 141.471 80.5219C143.973 79.7858 146.657 79.9789 149.027 81.0656Z" fill="black"/>
<path opacity="0.1" d="M137.774 115.695C138.949 116.726 139.711 118.146 139.92 119.695C140.129 121.243 139.772 122.815 138.913 124.12C139.14 123.925 139.353 123.714 139.551 123.49C140.684 122.199 141.257 120.511 141.145 118.797C141.033 117.084 140.244 115.485 138.953 114.352C138.314 113.792 137.57 113.362 136.765 113.089C135.96 112.816 135.109 112.703 134.26 112.759C132.547 112.871 130.948 113.66 129.815 114.951C129.616 115.176 129.433 115.414 129.268 115.665C130.45 114.642 131.963 114.082 133.527 114.087C135.09 114.093 136.599 114.664 137.774 115.695Z" fill="black"/>
<path opacity="0.1" d="M239.536 145.517C240.711 146.547 241.473 147.966 241.683 149.513C241.893 151.061 241.536 152.632 240.678 153.937C240.904 153.741 241.116 153.531 241.313 153.307C241.874 152.668 242.303 151.924 242.576 151.119C242.85 150.314 242.962 149.464 242.906 148.615C242.851 147.767 242.628 146.938 242.253 146.175C241.877 145.413 241.354 144.732 240.715 144.172C240.076 143.611 239.333 143.182 238.528 142.909C237.723 142.635 236.872 142.523 236.024 142.579C235.175 142.634 234.346 142.856 233.584 143.232C232.821 143.608 232.14 144.131 231.58 144.77C231.381 144.994 231.198 145.232 231.032 145.482C232.215 144.46 233.728 143.9 235.291 143.907C236.854 143.913 238.362 144.485 239.536 145.517Z" fill="black"/>
<path opacity="0.1" d="M112.648 145.424C113.899 144.485 115.449 144.031 117.009 144.146C118.57 144.262 120.036 144.938 121.136 146.051C120.992 145.789 120.83 145.537 120.651 145.298C119.609 143.959 118.084 143.082 116.402 142.856C114.72 142.63 113.017 143.073 111.659 144.089C110.301 145.106 109.396 146.615 109.139 148.293C108.882 149.97 109.293 151.681 110.285 153.058C110.464 153.296 110.659 153.522 110.868 153.734C110.113 152.367 109.877 150.773 110.204 149.246C110.531 147.719 111.399 146.362 112.648 145.424Z" fill="black"/>
<path opacity="0.1" d="M187.945 121.193C189.196 120.255 190.746 119.801 192.306 119.916C193.866 120.032 195.332 120.708 196.432 121.82C196.289 121.558 196.127 121.307 195.948 121.067C195.445 120.369 194.808 119.778 194.074 119.329C193.34 118.88 192.525 118.581 191.674 118.451C190.824 118.321 189.956 118.361 189.121 118.57C188.287 118.779 187.502 119.152 186.813 119.668C186.124 120.183 185.545 120.831 185.11 121.573C184.674 122.315 184.391 123.136 184.276 123.989C184.161 124.842 184.218 125.709 184.442 126.539C184.666 127.37 185.054 128.147 185.582 128.827C185.761 129.066 185.957 129.293 186.168 129.506C185.412 128.139 185.176 126.545 185.502 125.017C185.829 123.49 186.696 122.132 187.945 121.193Z" fill="black"/>
<path d="M176.201 169.65C175.484 169.102 175.574 167.78 175.574 167.78C175.574 167.78 176.826 167.363 177.543 167.919C178.26 168.475 178.54 169.316 178.17 169.792C177.8 170.268 176.919 170.208 176.201 169.65Z" fill="#FFC650"/>
<path d="M178.666 184.161C177.948 183.613 178.039 182.291 178.039 182.291C178.039 182.291 179.29 181.875 180.007 182.431C180.725 182.986 181.004 183.827 180.634 184.303C180.265 184.78 179.383 184.719 178.666 184.161Z" fill="#FFC650"/>
<path d="M176.201 185.53C175.484 184.982 175.574 183.66 175.574 183.66C175.574 183.66 176.826 183.244 177.543 183.799C178.26 184.355 178.54 185.196 178.17 185.672C177.8 186.149 176.919 186.088 176.201 185.53Z" fill="#FFC650"/>
<path d="M193.177 174.852C192.46 174.304 192.55 172.982 192.55 172.982C192.55 172.982 193.801 172.566 194.519 173.121C195.236 173.677 195.515 174.518 195.146 174.994C194.776 175.471 193.894 175.41 193.177 174.852Z" fill="#FFC650"/>
<path d="M122.625 132.512C123.187 131.8 124.504 131.904 124.504 131.904C124.504 131.904 124.903 133.161 124.339 133.873C123.775 134.585 122.935 134.856 122.461 134.481C121.987 134.105 122.061 133.224 122.625 132.512Z" fill="#FFC650"/>
<path opacity="0.1" d="M130.875 79.8034C134.655 79.8034 137.72 76.7388 137.72 72.9585C137.72 69.1782 134.655 66.1136 130.875 66.1136C127.094 66.1136 124.03 69.1782 124.03 72.9585C124.03 76.7388 127.094 79.8034 130.875 79.8034Z" fill="#FFC650"/>
<path opacity="0.3" d="M42.0278 189.484C42.1228 189.232 42.278 189.007 42.48 188.83C42.6819 188.652 42.9243 188.527 43.186 188.465C43.4652 188.402 43.7514 188.375 44.0375 188.386C45.7706 188.416 47.0849 189.207 48.6674 189.571C50.1787 189.93 51.9009 189.911 53.5574 189.883C54.5969 189.9 55.6356 189.817 56.6595 189.637C58.316 189.286 59.3975 188.459 60.405 187.676" fill="#FFC650"/>
<path opacity="0.3" d="M235.328 186.745C235.423 186.494 235.578 186.269 235.78 186.092C235.982 185.914 236.225 185.789 236.486 185.727C236.766 185.664 237.052 185.637 237.338 185.648C239.071 185.678 240.385 186.469 241.968 186.833C243.479 187.192 245.201 187.173 246.858 187.145C247.897 187.162 248.936 187.079 249.96 186.899C251.603 186.548 252.698 185.721 253.705 184.938" fill="#FFC650"/>
<path opacity="0.3" d="M250.661 192.769C250.756 192.517 250.911 192.293 251.113 192.115C251.315 191.938 251.557 191.813 251.819 191.751C252.098 191.688 252.384 191.661 252.67 191.671C254.403 191.701 255.718 192.493 257.3 192.857C258.812 193.215 260.534 193.196 262.19 193.169C263.23 193.185 264.268 193.103 265.292 192.922C266.935 192.572 268.03 191.745 269.038 190.962" fill="#FFC650"/>
<path opacity="0.3" d="M237.792 191.414C237.837 191.339 237.898 191.276 237.971 191.228C238.044 191.181 238.127 191.15 238.214 191.14C238.317 191.121 238.421 191.114 238.526 191.118C239.158 191.118 239.637 191.345 240.215 191.452C240.806 191.538 241.404 191.568 242 191.542C242.378 191.547 242.756 191.523 243.131 191.471C243.621 191.386 244.087 191.2 244.5 190.924" fill="#FFC650"/>
<path opacity="0.3" d="M240.53 188.402C240.575 188.327 240.636 188.264 240.709 188.216C240.782 188.169 240.865 188.139 240.952 188.128C241.055 188.11 241.16 188.102 241.264 188.106C241.897 188.106 242.376 188.334 242.953 188.44C243.544 188.526 244.142 188.557 244.739 188.531C245.117 188.535 245.495 188.511 245.869 188.46C246.359 188.375 246.825 188.188 247.238 187.912" fill="#FFC650"/>
<path opacity="0.3" d="M69.6812 183.507C69.7296 183.431 69.7943 183.367 69.8706 183.32C69.9468 183.272 70.0327 183.243 70.122 183.233C70.2288 183.216 70.337 183.21 70.445 183.214C71.1022 183.214 71.6032 183.422 72.2028 183.52C72.8193 183.598 73.441 183.625 74.0619 183.602C74.4553 183.606 74.8486 183.584 75.2392 183.537C75.7422 183.46 76.2257 183.287 76.663 183.027" fill="#FFC650"/>
<path opacity="0.3" d="M61.7412 183.78C61.7896 183.705 61.8544 183.641 61.9306 183.594C62.0069 183.546 62.0928 183.516 62.182 183.507C62.2889 183.49 62.397 183.484 62.5051 183.487C63.1622 183.487 63.6633 183.695 64.2629 183.794C64.8793 183.872 65.5011 183.899 66.122 183.876C66.5154 183.88 66.9087 183.858 67.2993 183.81C67.8022 183.734 68.2857 183.561 68.723 183.301" fill="#FFC650"/>
<path opacity="0.3" d="M58.1816 194.959C58.2766 194.708 58.4318 194.483 58.6338 194.306C58.8357 194.128 59.0781 194.003 59.3398 193.941C59.619 193.878 59.9052 193.851 60.1913 193.861C61.9244 193.892 63.2387 194.683 64.8212 195.047C66.3326 195.406 68.0547 195.387 69.7112 195.359C70.7507 195.375 71.7894 195.293 72.8133 195.113C74.4698 194.762 75.5513 193.935 76.5588 193.152" fill="#FFC650"/>
<path d="M216.581 179.632C216.545 179.731 216.539 179.839 216.562 179.942C216.625 180.147 216.877 180.215 217.093 180.243C217.59 180.289 218.09 180.301 218.588 180.278L223.1 180.191C223.17 180.197 223.24 180.183 223.303 180.153C223.36 180.111 223.406 180.055 223.437 179.991C223.744 179.426 223.943 178.808 224.023 178.17C224.043 178.079 224.036 177.984 224.004 177.896C223.932 177.784 223.821 177.704 223.692 177.672C223.053 177.43 222.401 177.223 221.74 177.053C221.307 176.957 220.881 176.834 220.464 176.684C219.916 176.47 219.369 175.985 218.821 175.884C218.331 175.799 218.251 176.177 218.095 176.56C217.66 177.623 216.891 178.521 216.581 179.632Z" fill="#FABDBD"/>
<path d="M233.496 185.815C233.384 185.292 232.921 184.925 232.481 184.615C232.04 184.306 231.566 183.994 231.098 183.706C231.861 183.29 232.564 182.771 233.187 182.165C233.565 181.844 233.892 181.467 234.156 181.048C234.42 180.623 234.506 180.111 234.394 179.624C234.298 179.344 234.139 179.089 233.93 178.879C233.721 178.669 233.467 178.509 233.187 178.411C232.627 178.217 232.039 178.113 231.446 178.104C231.021 178.077 230.594 178.052 230.17 178.033C230.436 177.983 230.699 177.918 230.958 177.839C231.915 177.525 232.834 177.103 233.696 176.582C233.843 176.52 233.976 176.43 234.088 176.317C234.2 176.204 234.288 176.07 234.348 175.922C234.374 175.777 234.358 175.627 234.301 175.491C234.244 175.354 234.149 175.237 234.028 175.153C233.786 174.984 233.501 174.889 233.206 174.879C232.804 174.859 232.403 174.921 232.026 175.063C231.649 175.204 231.305 175.421 231.016 175.701C230.831 175.907 230.623 176.091 230.394 176.248C230.26 176.342 230.094 176.38 229.933 176.353C229.771 176.327 229.626 176.238 229.529 176.106C229.467 175.985 229.434 175.85 229.433 175.714L229.45 175.701C229.79 175.39 230.048 175 230.204 174.567C230.359 174.133 230.405 173.668 230.34 173.212C230.219 172.519 229.991 171.849 229.663 171.227C230.13 171.058 230.617 170.952 231.112 170.912C231.246 170.91 231.379 170.887 231.506 170.843C231.629 170.777 231.736 170.684 231.818 170.572C231.9 170.459 231.957 170.329 231.982 170.192C232.034 169.923 232.111 169.66 232.212 169.406C232.803 169.781 233.511 169.927 234.203 169.815C234.894 169.704 235.52 169.343 235.963 168.801C236.495 168.825 237.023 168.707 237.494 168.459C238.055 168.13 238.562 167.333 238.228 166.684C238.09 166.488 237.927 166.311 237.743 166.159C237.516 165.884 237.341 165.569 237.228 165.231C236.629 163.722 235.353 163.133 233.8 162.898C233.104 162.773 232.394 162.755 231.692 162.843C231.155 162.943 230.628 163.095 230.121 163.298L229.874 163.391C229.855 162.983 229.789 162.569 229.773 162.249C229.755 162.114 229.769 161.977 229.814 161.849C229.937 161.647 230.133 161.5 230.361 161.439L233.453 160.119C233.78 159.967 234.12 159.844 234.468 159.749C235.479 159.508 236.607 159.749 237.527 159.273C237.792 159.133 238.025 158.939 238.211 158.703C238.396 158.467 238.53 158.195 238.603 157.904C238.707 157.485 238.638 156.967 238.266 156.746C237.894 156.524 237.379 156.713 236.976 156.915C235.67 157.617 234.316 158.226 232.924 158.736C231.594 159.185 230.186 159.453 228.946 160.105C228.721 160.21 228.514 160.349 228.333 160.519C228.144 160.731 227.989 160.971 227.873 161.23L227.388 162.15C227.007 162.895 226.63 163.771 226.939 164.532C226.893 164.584 226.851 164.64 226.816 164.699C226.676 164.924 226.742 165.217 226.624 165.414C226.506 165.611 226.057 165.806 225.844 165.962C225.548 166.161 225.261 166.375 224.979 166.594C223.889 167.465 222.891 168.445 222 169.518C220.676 171.148 219.448 172.854 218.323 174.627C218.101 174.926 217.928 175.257 217.811 175.61C217.724 175.935 217.733 176.279 217.838 176.599C217.392 177.573 216.696 178.428 216.403 179.468L216.225 179.498C215.897 180.445 216.108 181.538 216.28 182.529C216.376 183.093 216.51 183.709 216.973 184.054C217.223 184.215 217.502 184.328 217.794 184.385C218.125 184.473 218.429 184.561 218.728 184.659H218.69C218.309 184.624 217.868 184.659 217.641 184.955C217.536 185.12 217.47 185.308 217.449 185.502L216.735 189.53C216.65 189.825 216.665 190.139 216.776 190.425C216.93 190.663 217.16 190.842 217.427 190.935C217.91 191.146 218.421 191.287 218.944 191.353C219.16 191.395 219.384 191.381 219.593 191.312C219.695 191.275 219.783 191.206 219.844 191.116C219.905 191.025 219.935 190.918 219.93 190.809C219.886 190.502 219.505 190.357 219.382 190.078C219.204 189.713 219.494 189.308 219.766 189.01C219.807 188.963 219.853 188.917 219.902 188.867C220.01 189.18 220.156 189.478 220.338 189.755C220.401 189.873 220.498 189.97 220.615 190.034C220.733 190.098 220.867 190.127 221 190.116C221.636 189.974 222.274 189.838 222.917 189.711L223.04 189.763C224.094 190.206 225.182 190.564 226.293 190.833C226.501 190.896 226.72 190.915 226.936 190.888C227.042 190.87 227.14 190.821 227.219 190.748C227.297 190.674 227.352 190.579 227.377 190.475C227.407 190.217 227.185 190.004 226.972 189.85C226.568 189.569 226.125 189.346 225.658 189.191L227.744 188.81C228.437 188.661 229.143 188.579 229.852 188.566C230.767 188.583 231.769 188.799 232.513 188.262C232.93 187.904 233.226 187.426 233.362 186.893C233.505 186.553 233.552 186.18 233.496 185.815ZM226.293 177.935C225.97 177.935 225.606 177.935 225.236 177.935C225.274 177.661 225.293 177.387 225.332 177.113C225.335 177.029 225.365 176.948 225.417 176.881C225.486 176.819 225.573 176.782 225.666 176.774L226.966 176.519C226.995 176.414 227.002 176.304 226.987 176.195C226.972 176.087 226.935 175.983 226.879 175.889C226.979 175.962 227.086 176.024 227.199 176.073C227.182 176.608 227.275 177.141 227.473 177.639C227.516 177.755 227.587 177.857 227.681 177.937H227.697C227.229 177.94 226.761 177.935 226.293 177.935Z" fill="url(#paint0_linear_379_2713)"/>
<path d="M231.287 178.236C231.867 178.243 232.442 178.343 232.99 178.532C233.263 178.629 233.511 178.787 233.714 178.993C233.918 179.2 234.072 179.45 234.164 179.725C234.273 180.207 234.188 180.712 233.929 181.133C233.668 181.543 233.348 181.912 232.979 182.228C232.291 182.916 231.491 183.483 230.613 183.904C230.181 184.092 229.723 184.221 229.302 184.429C228.401 184.873 227.708 185.642 227.043 186.395C226.381 187.073 225.818 187.841 225.37 188.676C225.337 188.739 225.302 188.813 225.233 188.835C225.169 188.844 225.102 188.831 225.047 188.796L223.13 187.89C223.074 187.876 223.022 187.848 222.981 187.808C222.939 187.768 222.909 187.717 222.893 187.661C222.878 187.605 222.877 187.546 222.892 187.49C222.907 187.434 222.936 187.383 222.977 187.342C223.913 185.585 225.2 184.038 226.758 182.797C226.092 183.158 225.349 183.355 224.591 183.37C223.833 183.386 223.083 183.221 222.402 182.888C222.131 182.768 221.897 182.579 221.723 182.34C221.384 181.817 221.592 181.122 221.849 180.552C222.081 180.048 222.345 179.56 222.64 179.09C223.344 177.968 225.061 178.069 226.243 178.066C227.919 178.075 229.6 178.132 231.287 178.236Z" fill="#434175"/>
<path opacity="0.1" d="M228.639 182.176C228.321 182.211 228.014 182.314 227.738 182.477C228.212 182.157 229.296 182.239 229.852 182.184C230.561 182.158 231.263 182.025 231.933 181.79C230.827 181.838 229.726 181.967 228.639 182.176Z" fill="black"/>
<path d="M219.831 189.034C219.557 189.33 219.284 189.73 219.453 190.089C219.585 190.362 219.957 190.505 220.001 190.809C220.006 190.916 219.977 191.022 219.917 191.111C219.857 191.2 219.771 191.268 219.67 191.304C219.466 191.373 219.248 191.389 219.037 191.348C218.526 191.285 218.027 191.146 217.556 190.937C217.294 190.848 217.07 190.673 216.921 190.439C216.813 190.157 216.8 189.848 216.882 189.557L217.589 185.552C217.608 185.357 217.673 185.169 217.778 185.004C218.002 184.708 218.432 184.676 218.802 184.711C219.217 184.75 219.626 184.842 220.017 184.985C220.29 185.06 220.531 185.221 220.705 185.445C220.844 185.73 220.891 186.052 220.839 186.365C220.806 186.855 220.888 187.567 220.707 188.024C220.56 188.397 220.094 188.739 219.831 189.034Z" fill="#F86D70"/>
<path d="M224.675 188.982C225.463 189.089 226.214 189.384 226.865 189.842C227.073 189.993 227.289 190.204 227.259 190.458C227.236 190.562 227.183 190.656 227.106 190.729C227.029 190.802 226.931 190.849 226.827 190.866C226.616 190.893 226.402 190.874 226.2 190.811C225.112 190.554 224.047 190.208 223.015 189.776C222.741 189.687 222.493 189.529 222.295 189.319C222.199 189.212 222.142 189.076 222.132 188.933C222.123 188.789 222.162 188.647 222.243 188.528C222.443 188.295 222.818 188.303 223.065 188.106C223.235 187.964 223.339 187.715 223.552 187.674C223.71 187.666 223.864 187.72 223.982 187.824C224.165 187.95 224.636 188.15 224.732 188.372C224.738 188.577 224.718 188.782 224.675 188.982Z" fill="#F86D70"/>
<path d="M216.414 179.643C217.731 179.416 219.053 179.189 220.387 179.096C221.372 179.024 222.44 179.052 223.229 179.643C223.464 179.818 223.664 180.038 223.886 180.229C224.631 180.875 225.592 181.198 226.512 181.554C228.553 182.352 230.491 183.396 232.28 184.662C232.71 184.963 233.162 185.325 233.272 185.839C233.319 186.201 233.269 186.569 233.126 186.904C232.997 187.433 232.711 187.911 232.305 188.273C231.588 188.802 230.594 188.591 229.701 188.58C229.009 188.594 228.319 188.676 227.642 188.824C225.435 189.232 223.231 189.645 221.044 190.141C220.913 190.152 220.781 190.125 220.666 190.061C220.551 189.998 220.458 189.902 220.398 189.785C219.963 189.095 219.73 188.297 219.724 187.482C219.719 186.67 219.825 185.861 220.039 185.078C219.289 184.878 218.686 184.681 217.936 184.481C217.653 184.424 217.384 184.313 217.142 184.155C216.693 183.819 216.562 183.208 216.469 182.652C216.291 181.656 216.091 180.582 216.414 179.643Z" fill="#434175"/>
<path opacity="0.1" d="M229.304 186.083C228.814 185.717 228.245 185.471 227.642 185.363C227.285 185.26 226.918 185.19 226.547 185.155C225.968 185.155 225.39 185.212 224.822 185.325C223.431 185.518 222.015 185.424 220.661 185.051" fill="black"/>
<path d="M238.931 154.106C238.931 154.106 232.886 180.938 233.201 181.71C233.515 182.483 235.47 186.365 231.911 198.653C231.883 198.92 231.753 199.165 231.55 199.34C231.346 199.515 231.084 199.605 230.816 199.592C229.816 199.592 226.345 198.576 226.345 198.576C226.207 198.433 226.107 198.258 226.055 198.067C226.002 197.876 225.998 197.674 226.043 197.481C226.167 196.758 227.412 184.96 231.859 181.037L237.384 153.89C237.384 153.89 238.123 153.329 238.931 154.106Z" fill="#AE6E79"/>
<path d="M237.494 152.228L239.211 152.521C239.388 152.55 239.552 152.631 239.684 152.753C239.815 152.876 239.908 153.034 239.95 153.208C240.068 153.717 239.994 154.369 238.855 154.391C236.993 154.427 237.382 153.895 237.382 153.895C237.382 153.895 236.464 153.895 236.407 153.184C236.397 153.044 236.42 152.904 236.474 152.775C236.527 152.645 236.609 152.53 236.715 152.438C236.82 152.345 236.945 152.278 237.08 152.242C237.215 152.206 237.357 152.201 237.494 152.228Z" fill="#AE6E79"/>
<path d="M230.38 167.054C230.071 167.049 229.766 166.982 229.484 166.856C229.201 166.73 228.947 166.547 228.737 166.32C228.655 166.223 228.556 166.14 228.445 166.077C228.342 166.039 228.231 166.027 228.123 166.041C228.014 166.055 227.911 166.094 227.82 166.156C227.199 166.512 226.928 167.301 226.999 168.01C227.119 168.718 227.418 169.384 227.867 169.945C228.2 170.414 228.566 170.859 228.962 171.276C229.175 171.004 229.441 170.777 229.742 170.609C230.044 170.44 230.376 170.333 230.72 170.293C231.336 170.225 231.903 169.746 232.363 169.335C232.702 169.023 232.91 169.097 232.798 168.65C232.657 168.212 232.465 167.792 232.226 167.399C232.099 167.168 232 166.922 231.93 166.668C231.856 166.372 231.93 166.214 231.656 166.359C231.473 166.454 231.333 166.728 231.128 166.843C230.898 166.97 230.642 167.042 230.38 167.054Z" fill="#FABDBD"/>
<path d="M229.693 162.605C229.676 162.472 229.691 162.337 229.734 162.211C229.853 162.014 230.04 161.869 230.26 161.803L233.272 160.491C233.592 160.341 233.924 160.219 234.266 160.127C235.251 159.886 236.355 160.127 237.255 159.648C237.516 159.509 237.744 159.318 237.925 159.086C238.107 158.854 238.238 158.587 238.31 158.301C238.411 157.89 238.345 157.381 237.984 157.162C237.622 156.943 237.119 157.132 236.722 157.334C235.449 158.028 234.128 158.631 232.771 159.139C231.47 159.588 230.098 159.856 228.88 160.488C228.66 160.593 228.458 160.732 228.28 160.899C228.096 161.11 227.944 161.347 227.829 161.603L227.369 162.515C226.977 163.284 226.586 164.196 226.966 164.979C227.019 165.1 227.099 165.209 227.199 165.296C227.299 165.384 227.416 165.448 227.544 165.485C227.727 165.512 227.914 165.499 228.091 165.447C228.562 165.348 229.348 165.346 229.608 164.869C229.948 164.261 229.726 163.246 229.693 162.605Z" fill="#FABDBD"/>
<path d="M230.263 176.421C230.486 176.263 230.691 176.079 230.871 175.873C231.154 175.602 231.489 175.39 231.856 175.252C232.223 175.115 232.614 175.053 233.006 175.071C233.299 175.073 233.585 175.161 233.828 175.325C233.946 175.409 234.039 175.525 234.093 175.659C234.148 175.794 234.163 175.941 234.137 176.084C234.079 176.229 233.993 176.362 233.884 176.474C233.774 176.586 233.643 176.675 233.499 176.736C232.654 177.253 231.753 177.671 230.813 177.984C229.87 178.296 228.864 178.367 227.886 178.192C227.789 178.178 227.696 178.143 227.612 178.091C227.521 178.012 227.452 177.911 227.413 177.798C227.079 177.012 227.139 176.125 227.21 175.276C227.18 175.583 229.006 175.342 229.168 175.479C229.406 175.679 229.277 176.057 229.425 176.3C229.522 176.424 229.664 176.506 229.82 176.528C229.976 176.551 230.134 176.512 230.263 176.421Z" fill="#FABDBD"/>
<path d="M233.556 170.099C235.088 170.099 236.33 168.857 236.33 167.325C236.33 165.793 235.088 164.552 233.556 164.552C232.024 164.552 230.783 165.793 230.783 167.325C230.783 168.857 232.024 170.099 233.556 170.099Z" fill="#FABDBD"/>
<path d="M227.519 164.445C228.051 164.283 228.612 164.242 229.162 164.324C229.245 164.31 229.33 164.313 229.411 164.333C229.493 164.354 229.569 164.391 229.636 164.442C229.702 164.494 229.757 164.559 229.797 164.633C229.837 164.707 229.862 164.788 229.868 164.872C229.961 165.177 230.005 165.495 229.997 165.814C229.992 165.973 229.95 166.129 229.873 166.269C229.797 166.409 229.688 166.529 229.556 166.619C229.354 166.742 229.104 166.761 228.896 166.879C228.759 166.969 228.644 167.09 228.562 167.233C228.479 167.376 228.432 167.536 228.423 167.7C228.404 168.028 228.445 168.356 228.543 168.669C228.755 169.467 229.03 170.247 229.365 171.002C229.71 171.788 230.128 172.566 230.23 173.42C230.293 173.871 230.246 174.33 230.094 174.759C229.941 175.188 229.687 175.574 229.354 175.884C229.011 176.182 228.581 176.361 228.127 176.394C227.674 176.427 227.223 176.313 226.84 176.067C226.895 176.159 226.931 176.261 226.945 176.367C226.96 176.473 226.953 176.58 226.925 176.684L225.652 176.941C225.608 176.94 225.564 176.948 225.523 176.965C225.483 176.982 225.446 177.007 225.415 177.038C225.384 177.07 225.36 177.107 225.344 177.149C225.329 177.19 225.321 177.234 225.323 177.278C225.293 177.753 225.216 178.224 225.093 178.685C225.032 178.916 224.91 179.127 224.742 179.296C224.573 179.466 224.363 179.588 224.132 179.651C223.7 179.734 223.275 179.517 222.881 179.32C221.961 178.865 220.999 178.498 220.009 178.225C219.507 178.128 219.028 177.935 218.599 177.655C218.33 177.439 218.128 177.15 218.019 176.822C217.91 176.494 217.897 176.142 217.983 175.807C218.099 175.459 218.269 175.131 218.487 174.835C219.591 173.084 220.796 171.399 222.095 169.787C222.968 168.726 223.946 167.758 225.014 166.895C225.288 166.676 225.562 166.468 225.86 166.268C226.071 166.123 226.495 165.959 226.624 165.74C226.753 165.521 226.676 165.255 226.813 165.031C226.98 164.765 227.227 164.56 227.519 164.445Z" fill="#F86D70"/>
<path d="M237.223 168.722C236.718 168.987 236.149 169.105 235.58 169.061C235.016 169.042 234.457 168.941 233.893 168.916C233.195 168.886 232.382 169.042 232.059 169.658C231.956 169.912 231.879 170.176 231.829 170.446C231.802 170.581 231.747 170.709 231.666 170.82C231.585 170.931 231.481 171.023 231.361 171.09C231.236 171.132 231.106 171.155 230.975 171.158C229.796 171.281 228.681 171.756 227.776 172.522C226.871 173.287 226.216 174.307 225.899 175.449C225.615 175.165 225.399 174.82 225.266 174.441C225.134 174.062 225.089 173.657 225.135 173.258C224.946 173.967 224.146 174.531 224.313 175.249C223.999 174.901 223.762 174.492 223.615 174.047C223.468 173.603 223.416 173.132 223.461 172.666C223.506 172.2 223.649 171.748 223.878 171.34C224.108 170.932 224.42 170.576 224.795 170.296C225.157 170.022 225.57 169.83 225.945 169.578C226.468 169.224 226.913 168.765 227.25 168.231C227.588 167.696 227.812 167.098 227.908 166.474C227.988 165.942 227.977 165.378 228.226 164.902C228.571 164.239 229.321 163.914 230.019 163.654C230.516 163.453 231.031 163.302 231.558 163.202C232.243 163.113 232.937 163.129 233.617 163.248C235.134 163.478 236.38 164.056 236.96 165.543C237.07 165.875 237.24 166.185 237.464 166.454C237.642 166.607 237.801 166.782 237.935 166.975C238.269 167.599 237.773 168.385 237.223 168.722Z" fill="#434175"/>
<path d="M74.6094 199.852C74.6094 199.852 97.3783 189.229 105.951 192.955C114.523 196.682 134.658 195.937 134.658 195.937C134.658 195.937 170.438 194.458 174.545 195.937C178.652 197.415 215.921 197.429 217.783 195.937C219.645 194.445 240.894 193.328 244.251 195.937C246.308 197.527 248.562 198.844 250.959 199.852H74.6094Z" fill="#E8EAF2"/>
<path opacity="0.3" d="M74.6094 199.852C74.6094 199.852 97.3783 187.233 105.951 191.66C114.523 196.087 134.653 195.203 134.653 195.203C134.653 195.203 170.438 193.432 174.54 195.203C178.641 196.975 215.916 196.975 217.777 195.203C219.639 193.432 240.889 192.104 244.245 195.203C246.251 197.063 248.509 198.63 250.953 199.858L74.6094 199.852Z" fill="#FFC650"/>
</g>
<defs>
<linearGradient id="paint0_linear_379_2713" x1="218.412" y1="171.34" x2="236.255" y2="176.112" gradientUnits="userSpaceOnUse">
<stop stop-color="#808080" stop-opacity="0.25"/>
<stop offset="0.54" stop-color="#808080" stop-opacity="0.12"/>
<stop offset="1" stop-color="#808080" stop-opacity="0.1"/>
</linearGradient>
<clipPath id="clip0_379_2713">
<rect width="313.497" height="200" fill="white"/>
</clipPath>
</defs>
</svg>
