<svg width="115" height="22" viewBox="0 0 115 22" fill="none" xmlns="http://www.w3.org/2000/svg">
<path d="M57.9372 1.76393L65.9337 6.41294V15.694L57.9372 20.3324L49.9297 15.6938V6.41313L57.9372 1.76393Z" fill="#7032CF" stroke="#7032CF"/>
<path d="M98.3145 15.6939V6.41294L106.311 1.76393L114.318 6.41313V15.6938L106.311 20.3324L98.3145 15.6939Z" stroke="#7032CF"/>
<path d="M74.1221 15.6939V6.41294L82.1187 1.76393L90.1261 6.41313V15.6938L82.1187 20.3324L74.1221 15.6939Z" fill="#7032CF" stroke="#7032CF"/>
<path d="M25.7368 15.6938V6.41282L33.7334 1.76381L41.7408 6.41301V15.6936L33.7334 20.3323L25.7368 15.6938Z" fill="#7032CF" stroke="#7032CF"/>
<path d="M1.54443 15.6939V6.41294L9.54103 1.76393L17.5484 6.41313V15.6938L9.54103 20.3324L1.54443 15.6939Z" fill="#7032CF" stroke="#7032CF"/>
</svg>
