<svg width="115" height="22" viewBox="0 0 115 22" fill="none" xmlns="http://www.w3.org/2000/svg">
<path d="M56.9404 1.7639L64.9369 6.41291V15.6939L56.9404 20.3324L48.9329 15.6937V6.4131L56.9404 1.7639Z" fill="#7032CF" stroke="#7032CF"/>
<path d="M97.3178 15.6939V6.41291L105.314 1.7639L113.322 6.4131V15.6937L105.314 20.3324L97.3178 15.6939Z" fill="#7032CF" stroke="#7032CF"/>
<path d="M73.1253 15.6939V6.4129L81.1219 1.76389L89.1293 6.41308V15.6937L81.1219 20.3323L73.1253 15.6939Z" fill="#7032CF" stroke="#7032CF"/>
<path d="M24.7403 15.6939V6.41285L32.7369 1.76384L40.7444 6.41304V15.6937L32.7369 20.3323L24.7403 15.6939Z" fill="#7032CF" stroke="#7032CF"/>
<path d="M0.547929 15.6939V6.4129L8.54452 1.76389L16.5519 6.41308V15.6937L8.54452 20.3323L0.547929 15.6939Z" fill="#7032CF" stroke="#7032CF"/>
</svg>
