<svg width="143" height="143" viewBox="0 0 143 143" fill="none" xmlns="http://www.w3.org/2000/svg">
<g clip-path="url(#clip0_1022_3506)">
<rect width="143" height="143" rx="71.5" fill="white"/>
<circle cx="71.5" cy="71.5" r="71.5" fill="#DEF4FF"/>
<path d="M128.401 125.555C118.649 122.28 96.8985 111.326 89.5054 107.551C88.9334 107.265 88.4615 107.008 88.0754 106.822C87.389 106.464 86.9886 106.264 86.9886 106.264H57.5735C57.5735 106.264 57.1874 106.464 56.4867 106.822C56.1006 107.022 55.6144 107.265 55.0567 107.551C53.9699 108.109 52.5828 108.809 50.9669 109.625C41.5432 114.372 24.4833 122.766 16.1607 125.555C4.32031 129.544 4.32031 149.765 4.32031 149.765H140.242C140.242 149.765 140.242 129.544 128.401 125.555V125.555Z" fill="#223502"/>
<path d="M85.1433 92.2629H59.2317L57.5586 106.248C57.5586 108.994 64.1509 111.225 72.2733 111.225C80.3957 111.225 86.988 108.994 86.988 106.248L85.1576 92.2629H85.1433Z" fill="#FABCA8"/>
<path d="M98.2855 40.9828C98.8305 40.9828 99.2722 40.541 99.2722 39.9961C99.2722 39.4512 98.8305 39.0094 98.2855 39.0094C97.7406 39.0094 97.2988 39.4512 97.2988 39.9961C97.2988 40.541 97.7406 40.9828 98.2855 40.9828Z" fill="#FF9988"/>
<path d="M58.1152 101.615C58.1152 101.615 78.2067 103.46 85.2852 94.6508V84.5264L59.8169 86.9717L58.1152 101.615V101.615Z" fill="#E9A38D"/>
<path fill-rule="evenodd" clip-rule="evenodd" d="M74.3865 96.3247C87.985 96.3247 99.4219 84.5118 102.743 68.4867C103.361 68.319 103.643 68.1813 103.643 68.1813C106.646 66.5821 108.262 62.8841 107.805 58.0723C107.489 54.7517 104.98 54.0151 103.455 53.8774C101.537 35.5701 89.2538 21.45 74.3865 21.45C59.2126 21.45 46.73 36.1587 45.2121 55.0156C44.492 55.0026 40.2092 55.1124 40.052 59.5452C39.8804 64.3855 41.7251 67.9693 44.8139 69.3828C44.8139 69.3828 45.278 69.5742 46.3078 69.737C49.9516 85.1224 61.1442 96.3247 74.3865 96.3247Z" fill="#FABCA8"/>
<path d="M87.3162 61.8319C88.2719 61.8319 89.0465 60.4874 89.0465 58.8289C89.0465 57.1704 88.2719 55.8259 87.3162 55.8259C86.3606 55.8259 85.5859 57.1704 85.5859 58.8289C85.5859 60.4874 86.3606 61.8319 87.3162 61.8319Z" fill="#713D2D"/>
<path d="M61.3631 61.2174C62.3187 61.2174 63.0934 59.8729 63.0934 58.2144C63.0934 56.5559 62.3187 55.2114 61.3631 55.2114C60.4075 55.2114 59.6328 56.5559 59.6328 58.2144C59.6328 59.8729 60.4075 61.2174 61.3631 61.2174Z" fill="#713D2D"/>
<path d="M75.4908 72.3285H72.7595C71.544 72.3285 70.4715 71.8566 69.8995 71.0844C69.4848 70.5267 69.3704 69.8689 69.5706 69.2254C70.1855 67.2234 71.0292 61.7894 71.0435 61.7322C71.1007 61.3461 71.4725 61.0887 71.8586 61.1316C72.2447 61.1888 72.5164 61.5606 72.4592 61.9467C72.4306 62.1755 71.5869 67.5523 70.9434 69.6401C70.8862 69.8403 70.9148 70.0405 71.0578 70.2407C71.3581 70.6554 72.0302 70.9128 72.7738 70.9128H75.5051C75.9055 70.9128 76.2201 71.2274 76.2201 71.6278C76.2201 72.0282 75.9055 72.3428 75.5051 72.3428L75.4908 72.3285Z" fill="#CF8F7A"/>
<path d="M88.8462 66.5375C91.6025 66.5375 93.8369 66.0253 93.8369 65.3935C93.8369 64.7616 91.6025 64.2495 88.8462 64.2495C86.0899 64.2495 83.8555 64.7616 83.8555 65.3935C83.8555 66.0253 86.0899 66.5375 88.8462 66.5375Z" fill="#FB9B7B"/>
<path d="M59.7192 66.5375C62.4755 66.5375 64.7099 66.0253 64.7099 65.3935C64.7099 64.7616 62.4755 64.2495 59.7192 64.2495C56.9629 64.2495 54.7285 64.7616 54.7285 65.3935C54.7285 66.0253 56.9629 66.5375 59.7192 66.5375Z" fill="#FB9B7B"/>
<path d="M93.4664 51.5233C88.633 50.4222 85.0437 51.5233 82.8558 51.9523C81.9263 52.1382 81.6403 50.9799 81.6403 50.9799C81.4115 50.2077 82.4268 49.5928 83.1704 49.4212C85.6443 48.8063 88.8189 48.3773 93.6523 49.7358C94.5818 49.9932 94.6819 50.7654 94.6819 50.7654C94.6247 51.6234 94.0956 51.6806 93.4664 51.5233V51.5233Z" fill="#69392A"/>
<path d="M54.9135 51.3215C59.7898 50.4063 63.3362 51.6647 65.5098 52.1652C66.4393 52.3797 66.7539 51.25 66.7539 51.25C67.0113 50.4921 66.0246 49.8343 65.2953 49.6198C62.85 48.9191 59.6897 48.3614 54.7991 49.5197C53.8553 49.7485 53.7266 50.5064 53.7266 50.5064C53.7409 51.3644 54.27 51.4359 54.9135 51.3215V51.3215Z" fill="#69392A"/>
<path d="M73.3171 83.1965C69.928 83.1965 67.2539 82.4815 67.068 82.4386C66.6819 82.3385 66.4674 81.9381 66.5675 81.5663C66.6676 81.1802 67.068 80.9657 67.4398 81.0658C67.5113 81.0801 74.0893 82.8247 79.3946 80.7512C79.7664 80.6082 80.1811 80.7941 80.3241 81.1516C80.4671 81.5234 80.2812 81.9381 79.9237 82.0811C77.7358 82.9391 75.3906 83.2108 73.3171 83.2108V83.1965Z" fill="#CF8F7A"/>
<path d="M128.401 125.555C123.253 123.825 114.759 119.95 106.794 116.132L84.5717 124.011V145.275H83.1417V124.511L78.5371 126.142V149.751H140.242C140.242 149.751 140.242 129.531 128.401 125.541V125.555Z" fill="black"/>
<path d="M96.1547 107.823C89.1191 105.406 78.5371 126.141 78.5371 126.141L83.1417 124.511V145.275H84.5717V124.011L106.794 116.131L106.88 116.103C106.88 116.103 103.205 110.24 96.169 107.823H96.1547Z" fill="#232323"/>
<path d="M61.7913 124.609L58.488 144.701L57.0723 144.472L60.4185 124.123L37.7959 116.101C29.8165 119.933 21.2937 123.823 16.1314 125.553C4.29102 129.543 4.29102 149.763 4.29102 149.763H65.8239L66.1385 126.154L61.7913 124.609V124.609Z" fill="black"/>
<path d="M48.5212 107.823C41.4999 110.225 37.8248 116.074 37.8105 116.102L60.4331 124.125L57.0869 144.474L58.5026 144.702L61.8059 124.611L66.1531 126.155C66.1531 126.155 55.5568 105.42 48.5355 107.837L48.5212 107.823Z" fill="#232323"/>
</g>
<path d="M45 44.1682V53.7724C45 54.1812 45.2628 54.5436 45.6513 54.6706L45.8192 54.7255C46.2666 54.8717 46.7415 54.5955 46.8355 54.1343L47.8825 49.0002C48.5308 45.821 49.9774 42.8591 52.0862 40.3932C54.6709 37.3707 58.1337 35.2293 61.9924 34.2671L65.6777 33.3483C70.0874 32.2487 74.685 32.1322 79.1448 33.007L86.994 34.5466C90.9679 35.3261 94.5898 37.3525 97.3331 40.3314C99.6373 42.8333 101.229 45.9069 101.943 49.2324L102.844 53.4322C102.949 53.9189 103.516 54.1415 103.924 53.8559L104.485 53.4622C104.806 53.2376 104.991 52.8652 104.975 52.474L104.564 42.2021C104.486 40.2586 104.129 38.3365 103.503 36.495C101.804 31.4945 98.2115 27.3493 93.5426 24.8805C85.9572 20.8696 84.7743 20.4183 73.7558 20.0181C65.8685 19.7316 58.4715 22.8976 53.4276 26.0185C49.455 28.4765 47.1282 32.696 45.9176 37.2079C45.3085 39.4779 45 41.818 45 44.1682Z" fill="#69392A"/>
<path d="M47.2745 22.9102C48.6804 25.254 49.343 32.383 48.7573 36.387C77.1666 18.8086 105.265 41.6605 104.386 39.9026C103.508 38.1448 108.779 26.7189 107.901 27.3048C107.526 27.5545 106.138 28.0925 104.612 28.644C102.906 29.261 101.184 27.82 101.449 26.0246C101.467 25.9017 101.494 25.7803 101.531 25.6616L102.922 21.1524L102.816 21.1572C98.6328 21.348 94.5107 22.2376 90.6209 23.7892C90.6209 22.6279 90.8424 21.4774 91.2735 20.3992L91.7924 19.1016L88.8429 19.6396C86.5306 20.0613 84.1849 20.2735 81.8345 20.2735C80.6902 19.1168 79.8244 17.7147 79.3028 16.1735L78.9057 15L75.5233 16.2928C73.6988 16.9901 71.9789 17.9353 70.4121 19.1016L68.0874 17.6367L64.8474 15L63.9589 16.5675C63.0059 18.249 61.8267 19.7916 60.4542 21.1524C59.11 19.4081 57.4703 17.9131 55.6096 16.7353L55.1823 16.4649L54.9744 19.5708C54.9309 20.2211 54.7032 20.8457 54.3179 21.3714C53.303 22.7566 51.4324 23.148 49.8481 22.4855C47.9642 21.6977 46.3336 21.3415 47.2745 22.9102Z" fill="#55291C"/>
<path d="M47.2745 24.5919C48.6804 26.8413 47.8603 35.0893 47.2745 38.9321C75.6839 22.0612 105.265 42.5874 104.386 40.9004C103.508 39.2133 108.779 28.2472 107.901 28.8096C107.515 29.0565 106.053 29.5969 104.474 30.1428C102.824 30.7129 101.183 29.3137 101.447 27.5885C101.466 27.4655 101.495 27.3442 101.533 27.2257L102.922 22.9048L102.783 22.9109C98.6193 23.0931 94.5127 23.9455 90.6209 25.4354C90.6209 24.3217 90.8414 23.2191 91.2697 22.191L91.7924 20.9365L88.8473 21.4521C86.5317 21.8574 84.1853 22.0613 81.8345 22.0613C80.6907 20.9516 79.8197 19.5921 79.2897 18.0892L78.9057 17L75.4981 18.25C73.6899 18.9133 71.9792 19.8169 70.4121 20.9365L68.0874 19.5306L64.8474 17L63.9746 18.478C63.0113 20.1091 61.8265 21.5989 60.4542 22.9048C59.1099 21.2306 57.4837 19.8039 55.6486 18.6892L55.1823 18.4059L54.9789 21.3223C54.9325 21.9878 54.692 22.625 54.2872 23.1553C53.2809 24.4734 51.4826 24.8492 49.9466 24.224C48.0217 23.4406 46.3172 23.0601 47.2745 24.5919Z" fill="#69392A"/>
<defs>
<clipPath id="clip0_1022_3506">
<rect width="143" height="143" rx="71.5" fill="white"/>
</clipPath>
</defs>
</svg>
