<svg width="143" height="143" viewBox="0 0 143 143" fill="none" xmlns="http://www.w3.org/2000/svg">
<g clip-path="url(#clip0_545_3341)">
<rect width="143" height="142.027" rx="71.0136" fill="white"/>
<ellipse cx="71.5" cy="71.0136" rx="71.5" ry="71.0136" fill="#DEF4FF"/>
<path d="M102.002 54.8638C102.002 54.8638 107.064 54.2531 107.522 59.0394C107.979 63.8257 106.364 67.5043 103.361 69.095C103.361 69.095 102.717 69.4074 101.244 69.6631L102.002 54.878V54.8638Z" fill="#FFAD94"/>
<path d="M44.7313 54.8638C44.7313 54.8638 39.6691 54.2531 39.2115 59.0394C38.7539 63.8257 40.3698 67.5043 43.3728 69.095C43.3728 69.095 44.0163 69.4074 45.4892 69.6631L44.7313 54.878V54.8638Z" fill="#FFAD94"/>
<path d="M4.29102 148.746C4.29102 148.746 4.29102 128.664 16.1314 124.701C27.9718 120.738 54.7271 105.527 54.7271 105.527H72.8309V148.746H4.29102V148.746Z" fill="#080808"/>
<path d="M140.255 148.746C140.255 148.746 140.255 128.664 128.414 124.701C116.574 120.738 90.1046 105.527 90.1046 105.527H71.7148V148.746H140.255V148.746Z" fill="#080808"/>
<path d="M59.2317 91.6353L57.5586 105.526H86.988L85.1576 91.6353H59.2317Z" fill="#FFB69F"/>
<path d="M72.2733 113.836C80.4 113.836 86.988 110.994 86.988 107.488C86.988 103.981 80.4 101.139 72.2733 101.139C64.1466 101.139 57.5586 103.981 57.5586 107.488C57.5586 110.994 64.1466 113.836 72.2733 113.836Z" fill="#FFAD94"/>
<path d="M58.1152 100.924C58.1152 100.924 78.2067 102.756 85.2852 94.0069V83.9514L59.8169 86.3801L58.1152 100.924V100.924Z" fill="#F99C7E"/>
<path d="M73.4738 95.6694C89.6719 95.6694 102.803 78.9967 102.803 58.4299C102.803 37.8631 89.6719 21.1903 73.4738 21.1903C57.2757 21.1903 44.1445 37.8631 44.1445 58.4299C44.1445 78.9967 57.2757 95.6694 73.4738 95.6694Z" fill="#FFAD94"/>
<path d="M99.0858 28.6906C99.0858 28.6906 99.1144 28.6196 99.0858 28.577C98.1134 26.2619 96.9265 14.6299 77.8503 12.8688C72.9597 12.4143 65.967 13.2238 61.534 15.3259C55.4565 18.1948 48.664 19.8423 42.658 19.8281C42.4006 19.8281 42.3005 20.169 42.5293 20.2968L47.2197 24.0037C47.4056 24.1031 47.3913 24.373 47.1911 24.4582L41.2995 26.2335C41.085 26.3188 41.085 26.6312 41.2995 26.7022C42.2576 27.0147 44.6886 28.0799 46.8908 28.8326C43.2872 35.167 44.1166 44.271 44.1166 55.2071C44.1166 55.2071 44.0022 66.5409 47.8489 79.5363C52.0531 93.7391 61.2766 99.832 74.2753 99.8746C88.1177 99.9315 95.3392 88.1432 97.2697 83.9534C100.216 77.5338 102.747 65.6035 102.761 58.4311C102.761 58.4311 108.081 40.3084 99.0572 28.6906H99.0858ZM87.3312 81.3117C84.4712 82.7604 85.9155 75.2187 80.2241 74.9063C78.3222 74.7926 71.8586 74.3524 66.4246 74.8068C62.2919 75.1619 61.2909 78.8546 61.105 80.7294C61.0192 81.5389 60.7332 81.9082 59.961 81.6241C58.245 80.9992 54.5985 78.9824 52.8825 77.1077C51.1093 75.1761 47.9061 69.9637 47.6058 58.9566L47.9204 43.2342C47.9204 43.2342 54.2839 37.9366 55.385 34.1729C55.385 34.1729 83.8134 38.6893 92.0502 34.1729C92.0502 34.1729 95.4965 40.7203 99.2574 42.6945C100.416 43.291 100.216 50.7616 100.115 55.9172C100.015 56.6132 99.9295 57.4085 99.8866 58.3459C99.1287 73.0741 90.1626 79.8772 87.3169 81.3259L87.3312 81.3117Z" fill="#3E230F"/>
<path d="M87.3319 61.4112C88.2875 61.4112 89.0622 60.0759 89.0622 58.4287C89.0622 56.7814 88.2875 55.4461 87.3319 55.4461C86.3762 55.4461 85.6016 56.7814 85.6016 58.4287C85.6016 60.0759 86.3762 61.4112 87.3319 61.4112Z" fill="#3D301C"/>
<path d="M61.3768 60.801C62.3324 60.801 63.1071 59.4656 63.1071 57.8184C63.1071 56.1712 62.3324 54.8358 61.3768 54.8358C60.4212 54.8358 59.6465 56.1712 59.6465 57.8184C59.6465 59.4656 60.4212 60.801 61.3768 60.801Z" fill="#3D301C"/>
<path d="M75.4908 71.8375H72.7595C71.544 71.8375 70.4715 71.3688 69.8995 70.5876C69.4848 70.0337 69.3704 69.3804 69.5706 68.7413C70.1855 66.7813 70.9863 59.4669 70.9863 59.3959C71.0292 58.9982 71.3724 58.7283 71.7728 58.7709C72.1589 58.8136 72.4449 59.1686 72.402 59.5521C72.3734 59.8646 71.5726 67.0653 70.9291 69.1673C70.8719 69.3804 70.9005 69.565 71.0435 69.7639C71.3438 70.1615 72.0159 70.4314 72.7595 70.4314H75.4908C75.8912 70.4314 76.2058 70.7438 76.2058 71.1415C76.2058 71.5392 75.8912 71.8517 75.4908 71.8517V71.8375Z" fill="#F99C7E"/>
<path d="M88.8462 66.0848C91.6025 66.0848 93.8369 65.5761 93.8369 64.9486C93.8369 64.3211 91.6025 63.8124 88.8462 63.8124C86.0899 63.8124 83.8555 64.3211 83.8555 64.9486C83.8555 65.5761 86.0899 66.0848 88.8462 66.0848Z" fill="#FD9270"/>
<path d="M59.7173 66.0848C62.4736 66.0848 64.708 65.5761 64.708 64.9486C64.708 64.3211 62.4736 63.8124 59.7173 63.8124C56.961 63.8124 54.7266 64.3211 54.7266 64.9486C54.7266 65.5761 56.961 66.0848 59.7173 66.0848Z" fill="#FD9270"/>
<path d="M93.394 51.4978C88.6321 50.106 84.9856 50.9866 82.7691 51.2706C81.8253 51.3842 81.625 50.2338 81.625 50.2338C81.4391 49.4527 82.4974 48.913 83.241 48.7709C85.7435 48.3164 88.9467 48.0892 93.6943 49.7225C94.6095 50.035 94.6667 50.8019 94.6667 50.8019C94.5666 51.6541 94.0232 51.6683 93.394 51.4836V51.4978Z" fill="#3E230F"/>
<path d="M55.0546 51.585C59.7879 50.1079 63.4487 50.9317 65.6652 51.1732C66.609 51.2726 66.7949 50.1222 66.7949 50.1222C66.9665 49.341 65.894 48.8155 65.1504 48.6877C62.6336 48.2758 59.4304 48.0912 54.7257 49.8097C53.8105 50.1364 53.7676 50.9033 53.7676 50.9033C53.882 51.7555 54.4254 51.7555 55.0403 51.5708L55.0546 51.585Z" fill="#3E230F"/>
<path d="M73.3164 83.3712C69.9416 83.3712 67.2532 82.6611 67.0816 82.6185C66.6955 82.519 66.481 82.1214 66.5811 81.7521C66.6812 81.3828 67.0816 81.1556 67.4534 81.255C67.5249 81.2692 74.1029 83.0019 79.4082 80.9425C79.78 80.8005 80.1947 80.9851 80.3377 81.3402C80.4807 81.7095 80.2948 82.1214 79.9373 82.2634C77.7494 83.1155 75.4042 83.3854 73.3307 83.3854L73.3164 83.3712Z" fill="#91462F"/>
<path d="M58.1876 100.995L69.5704 109.062L64.0649 122.157L49.3359 108.536L58.1876 100.995Z" fill="#151515"/>
<path d="M69.5699 109.062L70.2563 113.905L67.668 113.578L69.5699 109.062Z" fill="black"/>
<path d="M76.0635 108.807L75.0625 113.905L77.8653 113.437L76.0635 108.807Z" fill="black"/>
<path d="M76.0645 108.807L86.4892 101.208L96.256 108.991L81.7272 123.407L76.0645 108.807Z" fill="#151515"/>
<path d="M75.0464 115.766H70.2559V148.731H75.0464V115.766Z" fill="white"/>
<path d="M70.1569 113.225L70.257 116.123C70.257 116.123 72.4878 117.089 75.0475 116.123L75.119 113.495L70.1426 113.211L70.1569 113.225Z" fill="#FFAD94"/>
<path d="M75.0464 122.726H70.2559V124.146H75.0464V122.726Z" fill="#D6D6D6"/>
<path d="M75.0464 129.131H70.2559V130.551H75.0464V129.131Z" fill="#D6D6D6"/>
<path d="M75.0464 135.536H70.2559V136.956H75.0464V135.536Z" fill="#D6D6D6"/>
<path d="M75.0464 141.941H70.2559V143.361H75.0464V141.941Z" fill="#D6D6D6"/>
<path d="M79.1236 130.51C79.8186 130.51 80.382 129.95 80.382 129.26C80.382 128.57 79.8186 128.01 79.1236 128.01C78.4286 128.01 77.8652 128.57 77.8652 129.26C77.8652 129.95 78.4286 130.51 79.1236 130.51Z" fill="#151515"/>
<path d="M79.1236 144.455C79.8186 144.455 80.382 143.895 80.382 143.205C80.382 142.515 79.8186 141.955 79.1236 141.955C78.4286 141.955 77.8652 142.515 77.8652 143.205C77.8652 143.895 78.4286 144.455 79.1236 144.455Z" fill="#FFA242"/>
</g>
<defs>
<clipPath id="clip0_545_3341">
<rect width="143" height="142.027" rx="71.0136" fill="white"/>
</clipPath>
</defs>
</svg>
